<svg height="512pt" viewBox="-53 0 512 512.19467" width="512pt" xmlns="http://www.w3.org/2000/svg"><path d="m327.867188 40.984375c-35.820313-27.230469-79.746094-41.65625-124.734376-40.9609375-97.457031 0-176.550781 62.5898435-176.550781 139.7421875v30.277344l2.46875 138.328125c5.652344 18.097656 18.363281 42.371094 19.863281 52.878906 4.765626 32.484375 6.445313 69.207031 32.574219 97.101562 13.59375 14.476563 35.664063 23.480469 55.789063 33.28125 4.414062 2.117188 8.738281 4.238282 12.890625 6.53125 14.902343 10.140626 32.765625 15.019532 50.757812 13.859376h4.414063c17.992187 1.171874 35.855468-3.707032 50.757812-13.859376 4.148438-2.292968 8.386719-4.414062 12.886719-6.53125 20.039063-9.800781 42.285156-18.804687 55.878906-33.28125 26.128907-27.894531 27.808594-64.617187 32.574219-97.101562 1.5-10.507812 14.035156-34.78125 19.773438-52.878906l2.472656-138.328125v-30.277344c-1.027344-39.179687-20.167969-75.667969-51.816406-98.78125zm0 0" fill="#fdd7ad"/><path d="m379.683594 139.765625v30.277344l-2.472656 138.328125c-5.738282 18.097656-18.273438 42.371094-19.773438 52.878906-4.765625 32.484375-6.445312 69.207031-32.574219 97.101562-13.59375 14.476563-35.839843 23.480469-55.878906 33.28125 27.007813-27.410156 41.503906-64.746093 40.078125-103.195312.417969-23.789062 3.378906-47.460938 8.828125-70.621094v-176.640625c-.015625-16.25-8.925781-31.191406-23.214844-38.929687l-74.773437-45.019532c-10.464844-5.648437-23.074219-5.648437-33.542969 0l-74.769531 45.019532c-14.292969 7.738281-23.203125 22.679687-23.214844 38.929687v176.640625c5.449219 23.160156 8.40625 46.832032 8.824219 70.621094-1.425781 38.449219 13.074219 75.785156 40.078125 103.195312-20.125-9.800781-42.195313-18.804687-55.789063-33.28125-26.128906-27.894531-27.808593-64.617187-32.574219-97.101562-1.5-10.507812-14.210937-34.78125-19.863281-52.878906l-2.46875-138.328125v-30.277344c0-77.152344 79.09375-139.7421875 176.550781-139.7421875 44.988282-.6953125 88.914063 13.7304685 124.734376 40.9609375 31.648437 23.113281 50.789062 59.601563 51.816406 98.78125zm0 0" fill="#285680"/><path d="m317.890625 141.175781v176.640625c-5.449219 23.160156-8.410156 46.832032-8.828125 70.621094 1.425781 38.449219-13.070312 75.785156-40.078125 103.195312-4.5 2.117188-8.738281 4.238282-12.886719 6.53125-14.902344 10.152344-32.765625 15.03125-50.757812 13.859376h-4.414063c-17.992187 1.160156-35.855469-3.71875-50.757812-13.859376-4.152344-2.292968-8.476563-4.414062-12.890625-6.53125-27.003906-27.410156-41.503906-64.746093-40.078125-103.195312-.417969-23.789062-3.375-47.460938-8.824219-70.621094v-176.640625c.011719-16.25 8.921875-31.191406 23.214844-38.929687l74.769531-45.019532c10.46875-5.648437 23.078125-5.648437 33.542969 0l74.773437 45.019532c14.289063 7.738281 23.199219 22.679687 23.214844 38.929687zm0 0" fill="#fdd7ad"/><path d="m211.960938 388.4375h-17.65625c-5.554688-.011719-10.78125-2.625-14.125-7.0625l-10.59375-14.125c-2.925782-3.898438-2.132813-9.433594 1.765624-12.355469 3.902344-2.925781 9.433594-2.136719 12.359376 1.765625l10.59375 14.121094h17.65625l10.589843-14.121094c2.925781-3.902344 8.460938-4.691406 12.359375-1.765625 3.902344 2.921875 4.691406 8.457031 1.765625 12.355469l-10.59375 14.125c-3.339843 4.4375-8.570312 7.050781-14.121093 7.0625zm0 0" fill="#f09372"/><path d="m247.269531 432.574219h-88.277343c-4.875 0-8.824219-3.949219-8.824219-8.824219 0-4.878906 3.949219-8.828125 8.824219-8.828125h88.277343c4.875 0 8.828125 3.949219 8.828125 8.828125 0 4.875-3.953125 8.824219-8.828125 8.824219zm0 0" fill="#802d40"/><path d="m406.167969 220.714844v35.308594c0 34.128906-27.667969 61.792968-61.792969 61.792968h-282.484375c-34.128906 0-61.7929688-27.664062-61.7929688-61.792968v-35.308594c0-34.128906 27.6640628-61.792969 61.7929688-61.792969h74.152344c3.769531.132813 7.375 1.601563 10.160156 4.148437 9.320313 7.925782 31.277344 13.503907 56.929687 13.503907 25.652344 0 47.605469-5.578125 56.964844-13.503907 2.777344-2.539062 6.363282-4.007812 10.125-4.148437h74.152344c34.125 0 61.792969 27.664063 61.792969 61.792969zm0 0" fill="#35495e"/><path d="m61.890625 211.886719h282.484375c14.625 0 26.480469 11.855469 26.480469 26.480469 0 14.628906-11.855469 26.484374-26.480469 26.484374h-282.484375c-14.625 0-26.484375-11.855468-26.484375-26.484374 0-14.625 11.859375-26.480469 26.484375-26.480469zm0 0" fill="#b0d3f0"/><path d="m211.960938 467.886719h-17.65625c-4.875 0-8.828126-3.953125-8.828126-8.828125s3.953126-8.828125 8.828126-8.828125h17.65625c4.875 0 8.824218 3.953125 8.824218 8.828125s-3.949218 8.828125-8.824218 8.828125zm0 0" fill="#f09372"/></svg>