<svg height="512pt" viewBox="-36 0 512 512.1707" width="512pt" xmlns="http://www.w3.org/2000/svg"><path d="m397.675781 203.035156h24.972657c5.285156-.175781 10.382812 1.972656 13.949218 5.878906s5.242188 9.175782 4.589844 14.425782l-13.003906 79.445312c-1.667969 8.871094-9.515625 15.222656-18.539063 15.007813h-377.863281c-9.019531.207031-16.863281-6.140625-18.539062-15.007813l-13.019532-79.445312c-.648437-5.25 1.027344-10.519532 4.59375-14.421875 3.5625-3.90625 8.660156-6.054688 13.945313-5.882813zm0 0" fill="#f09372"/><path d="m146.894531 126.144531c-60.027343-6.972656-89.691406 48.90625-102.667969 73.976563v.089844l2.648438 102.839843c.015625.386719.078125.773438.179688 1.148438.175781 1.324219.441406 2.648437.703124 3.972656.511719 2.648437 1.160157 5.273437 1.945313 7.855469.164063.601562.371094 1.191406.617187 1.765625 5.03125 14.566406 13.859376 27.894531 16.152344 43.433593 4.769532 32.484376 6.445313 69.207032 32.574219 97.101563 16.597656 17.65625 45.816406 27.1875 68.589844 39.8125 14.90625 10.140625 32.769531 15.019531 50.761719 13.859375h4.410156c17.992187 1.171875 35.859375-3.707031 50.761718-13.859375 22.6875-12.625 52.082032-22.15625 68.675782-39.8125 26.132812-27.894531 27.808594-64.617187 32.574218-97.101563 2.628907-12.109374 6.660157-23.871093 12.007813-35.046874.066406-.070313.097656-.167969.085937-.265626l27.984376-228.8125zm0 0" fill="#fdd7ad"/><path d="m146.894531 126.144531c-60.027343-6.972656-89.691406 48.90625-102.667969 73.976563v2.914062h-17.742187c1.1875-6.5 1.898437-13.082031 2.121094-19.6875 1.5-17.6875-2.3125-35.421875-10.949219-50.933594-17.65234375-26.484374 22.863281-126.765624 97.105469-97.105468 10.769531 4.328125 21.007812 8.125 30.367187 11.300781zm0 0" fill="#805333"/><path d="m379.589844 105.929688c-3.363282.019531-6.445313-1.871094-7.945313-4.878907-22.335937-44.773437-74.648437-23.253906-76.871093-22.308593-4.457032 1.789062-9.523438-.308594-11.410157-4.726563-1.882812-4.414063.105469-9.527344 4.480469-11.507813 24-10.300781 75.738281-17.132812 99.644531 30.648438 1.367188 2.738281 1.222657 5.988281-.386719 8.589844-1.609374 2.601562-4.453124 4.1875-7.511718 4.183594zm0 0"/><path d="m52.96875 114.757812c-4.875 0-8.828125-3.953124-8.828125-8.828124-.539063-14.203126 4.867187-27.992188 14.921875-38.042969 10.050781-10.050781 23.835938-15.460938 38.042969-14.921875 4.875 0 8.828125 3.953125 8.828125 8.828125s-3.953125 8.828125-8.828125 8.828125c-34.902344 0-35.308594 33.871094-35.308594 35.308594 0 4.875-3.953125 8.828124-8.828125 8.828124zm0 0" fill="#59474e"/><path d="m220.691406 388.414062c-27.929687 0-35.308594-17.320312-35.308594-26.484374-.058593-4.875 3.84375-8.875 8.71875-8.933594s8.875 3.847656 8.933594 8.722656c.117188 1.597656 1.539063 9.039062 17.65625 9.039062 4.875 0 8.828125 3.953126 8.828125 8.828126s-3.953125 8.828124-8.828125 8.828124zm0 0" fill="#f09372"/><path d="m220.691406 388.414062c-4.875 0-8.828125-3.953124-8.828125-8.828124s3.953125-8.828126 8.828125-8.828126c16.253906 0 17.558594-7.5625 17.65625-9.082031.292969-4.679687 4.140625-8.34375 8.828125-8.414062h.273438c4.734375.078125 8.539062 3.933593 8.554687 8.667969 0 9.164062-7.382812 26.484374-35.3125 26.484374zm0 0" fill="#f09372"/><path d="m264.828125 432.550781h-88.273437c-4.875 0-8.828126-3.953125-8.828126-8.828125s3.953126-8.824218 8.828126-8.824218h88.273437c4.878906 0 8.828125 3.949218 8.828125 8.824218s-3.949219 8.828125-8.828125 8.828125zm0 0" fill="#802d40"/><path d="m220.691406 317.792969s17.65625 0 52.964844 26.484375c35.3125 26.480468 123.585938 35.308594 123.585938-70.621094 0-105.933594-77.503907-93.363281-105.929688-70.621094-44.136719 35.308594-35.308594 52.964844-70.621094 52.964844-35.308594 0-26.480468-17.65625-70.621094-52.964844-28.425781-22.742187-105.929687-35.3125-105.929687 70.621094 0 105.929688 88.273437 97.101562 123.585937 70.621094 35.308594-26.484375 52.964844-26.484375 52.964844-26.484375zm0 0" fill="#285680"/><path d="m160.320312 261.535156-60.539062-14.125c-3.152344-.601562-6.398438.390625-8.675781 2.65625-2.273438 2.265625-3.285157 5.507813-2.695313 8.660156l2.710938 17.066407c2.320312 16.40625 14.808594 29.53125 31.082031 32.660156h.050781c17.855469 2.875 35.222656-7.382813 41.324219-24.40625l3.46875-9.113281c1.070313-2.660156.945313-5.652344-.339844-8.214844-1.289062-2.5625-3.613281-4.453125-6.386719-5.183594zm0 0" fill="#2c3e50"/><path d="m281.0625 261.535156 60.539062-14.125c3.152344-.601562 6.402344.390625 8.675782 2.65625 2.273437 2.265625 3.285156 5.507813 2.695312 8.660156l-2.710937 17.066407c-2.316407 16.40625-14.804688 29.53125-31.082031 32.660156h-.050782c-17.855468 2.875-35.222656-7.382813-41.324218-24.40625l-3.46875-9.113281c-1.070313-2.660156-.945313-5.652344.34375-8.214844 1.285156-2.5625 3.609374-4.453125 6.382812-5.183594zm0 0" fill="#2c3e50"/><path d="m229.519531 467.863281h-17.65625c-4.875 0-8.828125-3.953125-8.828125-8.828125s3.953125-8.828125 8.828125-8.828125h17.65625c4.875 0 8.828125 3.953125 8.828125 8.828125s-3.953125 8.828125-8.828125 8.828125zm0 0" fill="#f09372"/><path d="m414.898438 203.035156c0-52.964844 44.136718-97.105468-17.65625-158.898437-61.792969-61.792969-97.101563-17.652344-158.894532-8.828125-61.792968 8.828125-52.964844-35.308594-52.964844-35.308594-114.761718 88.277344 8.828126 185.378906 8.828126 185.378906s8.824218-70.621094 61.792968-52.964844c52.964844 17.65625 84.144532-52.964843 145.9375 70.621094zm0 0" fill="#cb8252"/><path d="m194.210938 194.207031c-2.78125.007813-5.402344-1.300781-7.0625-3.53125-1.191407-1.578125-28.796876-39.519531-10.328126-113.371093.671876-3.160157 3.011719-5.699219 6.105469-6.625 3.09375-.921876 6.445313-.085938 8.738281 2.1875 2.292969 2.273437 3.164063 5.613281 2.269532 8.71875-16.265625 65.066406 7.132812 98.214843 7.363281 98.539062 1.984375 2.679688 2.289063 6.246094.789063 9.222656-1.496094 2.976563-4.542969 4.855469-7.875 4.859375zm0 0" fill="#805333"/></svg>