<svg height="512pt" viewBox="-35 0 512 512.1707" width="512pt" xmlns="http://www.w3.org/2000/svg"><path d="m64.289062 351.691406c1.074219 3.09375 1.84375 6.289063 2.292969 9.535156 4.769531 32.484376 6.445313 69.207032 32.574219 97.101563 16.597656 17.65625 45.816406 27.1875 68.589844 39.8125 14.90625 10.140625 32.769531 15.019531 50.761718 13.859375h4.410157c17.992187 1.171875 35.859375-3.707031 50.761719-13.859375 22.683593-12.625 52.082031-22.15625 68.675781-39.8125 26.132812-27.894531 27.808593-64.617187 32.574219-97.101563.507812-3.230468 1.246093-6.414062 2.207031-9.535156l-152.070313-97.105468zm0 0" fill="#fdd7ad"/><path d="m220.800781 388.414062c-27.929687 0-35.308593-17.320312-35.308593-26.484374-.058594-4.875 3.84375-8.875 8.71875-8.933594s8.875 3.847656 8.933593 8.722656c.125 1.597656 1.539063 9.039062 17.65625 9.039062 4.875 0 8.828125 3.953126 8.828125 8.828126s-3.953125 8.828124-8.828125 8.828124zm0 0" fill="#f09372"/><path d="m220.800781 388.414062c-4.875 0-8.828125-3.953124-8.828125-8.828124s3.953125-8.828126 8.828125-8.828126c16.242188 0 17.558594-7.5625 17.65625-9.082031.332031-4.769531 4.320313-8.457031 9.101563-8.414062 4.734375.078125 8.539062 3.933593 8.554687 8.667969 0 9.164062-7.382812 26.484374-35.3125 26.484374zm0 0" fill="#f09372"/><path d="m264.9375 432.550781h-88.273438c-4.875 0-8.828124-3.953125-8.828124-8.828125s3.953124-8.824218 8.828124-8.824218h88.273438c4.875 0 8.828125 3.949218 8.828125 8.824218s-3.953125 8.828125-8.828125 8.828125zm0 0" fill="#802d40"/><g fill="#f09372"><path d="m229.628906 467.863281h-17.65625c-4.875 0-8.828125-3.953125-8.828125-8.828125s3.953125-8.828125 8.828125-8.828125h17.65625c4.875 0 8.828125 3.953125 8.828125 8.828125s-3.953125 8.828125-8.828125 8.828125zm0 0"/><path d="m132.523438 414.898438c-4.875 0-8.824219-3.953126-8.824219-8.828126-1.652344-20.167968-4.542969-40.214843-8.652344-60.027343-.632813-3.09375.433594-6.285157 2.796875-8.375 2.359375-2.09375 5.660156-2.765625 8.648438-1.765625 2.992187.996094 5.226562 3.515625 5.855468 6.609375 4.375 20.96875 7.382813 42.199219 9.003906 63.558593 0 4.875-3.949218 8.828126-8.828124 8.828126zm0 0"/><path d="m309.078125 414.898438c-4.875 0-8.828125-3.953126-8.828125-8.828126 1.621094-21.359374 4.628906-42.589843 9.003906-63.558593.96875-4.769531 5.613282-7.855469 10.386719-6.898438 4.769531.957031 7.867187 5.59375 6.921875 10.367188-4.113281 19.832031-7.003906 39.898437-8.65625 60.089843 0 4.875-3.953125 8.828126-8.828125 8.828126zm0 0"/></g><path d="m362.042969 132.503906v-26.574218c0-58.503907-47.425781-105.929688-105.929688-105.929688h-70.621093c-58.503907 0-105.933594 47.425781-105.933594 105.929688v26.394531l141.242187 163.398437zm0 0" fill="#b49aca"/><path d="m205.96875 246.554688v.089843l-.96875.527344c-142.125-26.480469-197.472656-123.585937-197.472656-123.585937s-1.855469-35.308594 45.550781-52.964844c3.722656 22.402344 12.808594 43.574218 26.480469 61.703125 8.359375 10.824219 18.804687 19.859375 30.722656 26.574219 43.960938 24.628906 88.007812 18.710937 94.011719 81.476562.222656 2.136719.789062 4.222656 1.675781 6.179688zm0 0" fill="#3d324c"/><path d="m434.074219 123.585938s-55.171875 97.105468-197.03125 123.585937l-.96875-.527344v-.089843c.925781-1.941407 1.496093-4.035157 1.675781-6.179688 6.003906-62.765625 49.964844-56.847656 93.835938-81.476562 49.347656-27.632813 56.9375-88.277344 56.9375-88.277344 47.316406 17.65625 45.550781 52.964844 45.550781 52.964844zm0 0" fill="#3d324c"/><path d="m399.824219 342.070312c-6.460938 7.054688-15.921875 10.566407-25.421875 9.445313l-114.320313-15.097656c-4.757812-.71875-8.921875-3.582031-11.296875-7.765625l-7.0625-11.832032c-2.648437-4.753906-7.621094-7.746093-13.066406-7.855468h-15.183594c-5.472656.085937-10.484375 3.078125-13.152344 7.855468l-7.0625 11.832032c-2.375 4.183594-6.539062 7.046875-11.296874 7.765625l-114.671876 15.097656c-9.472656 1.121094-18.90625-2.394531-25.335937-9.445313-21.007813-22.160156-57.644531-82.097656-34.425781-218.484374 0 0 55.347656 97.105468 197.472656 123.585937l.96875-.527344c2.511719 5.542969 7.957031 9.171875 14.039062 9.355469h2.117188c6.050781-.207031 11.460938-3.835938 13.949219-9.355469l.96875.527344c141.859375-26.480469 197.03125-123.585937 197.03125-123.585937 23.128906 136.386718-13.328125 196.324218-34.25 218.484374zm0 0" fill="#7d6599"/><path d="m160.429688 268.316406-60.566407-12.105468c-2.886719-.78125-5.972656-.085938-8.246093 1.855468-2.273438 1.941406-3.445313 4.882813-3.125 7.855469l2.710937 14.628906c3.359375 14.980469 15.832031 26.195313 31.082031 27.957031h.054688c16.886718 2.957032 33.710937-5.558593 41.320312-20.921874l3.46875-7.8125c.960938-2.410157.757813-5.128907-.550781-7.367188s-3.578125-3.75-6.148437-4.089844zm0 0" fill="#2c3e50"/><path d="m281.171875 268.316406 60.566406-12.105468c2.886719-.78125 5.972657-.085938 8.246094 1.855468s3.445313 4.882813 3.125 7.855469l-2.710937 14.628906c-3.359376 14.980469-15.828126 26.195313-31.082032 27.957031h-.050781c-16.890625 2.957032-33.710937-5.558593-41.324219-20.921874l-3.46875-7.8125c-.960937-2.410157-.757812-5.128907.550782-7.367188 1.308593-2.238281 3.578124-3.75 6.148437-4.089844zm0 0" fill="#2c3e50"/><path d="m152.902344 99.347656 61.304687-61.304687c3.636719-3.636719 9.53125-3.636719 13.167969 0l61.304688 61.304687c3.636718 3.636719 3.636718 9.535156 0 13.171875l-61.304688 61.300781c-3.636719 3.636719-9.53125 3.636719-13.167969 0l-61.304687-61.300781c-3.636719-3.636719-3.636719-9.535156 0-13.171875zm0 0" fill="#f0c419"/><path d="m194.320312 105.933594 26.484376-26.484375 26.484374 26.484375-26.484374 26.484375zm0 0" fill="#f29c1f"/></svg>