<svg height="512pt" viewBox="-36 0 512 512.17021" width="512pt" xmlns="http://www.w3.org/2000/svg"><path d="m397.242188 203.035156v-61.792968c0-78.007813-63.234376-141.242188-141.242188-141.242188h-70.617188c-78.007812 0-141.242187 63.234375-141.242187 141.242188v61.792968zm0 0" fill="#f29c1f"/><path d="m220.691406 150.070312c-7.730468 0-15.078125-3.375-20.109375-9.242187l-40.050781-56.261719c-2.824219-3.972656-1.894531-9.484375 2.078125-12.308594 3.972656-2.824218 9.484375-1.894531 12.3125 2.078126l39.554687 55.613281c3.824219 3.15625 9.417969 2.882812 12.914063-.625l39.070313-54.996094c1.828124-2.570313 4.890624-3.96875 8.027343-3.671875 3.140625.296875 5.882813 2.246094 7.195313 5.113281 1.3125 2.871094.996094 6.21875-.832032 8.789063l-39.554687 55.613281c-5.046875 6.214844-12.601563 9.84375-20.605469 9.898437zm0 0" fill="#f3d55b"/><path d="m220.691406 79.449219c-4.875 0-8.828125-3.953125-8.828125-8.828125v-26.484375c0-4.875 3.953125-8.828125 8.828125-8.828125s8.828125 3.953125 8.828125 8.828125v26.484375c0 4.875-3.953125 8.828125-8.828125 8.828125zm0 0" fill="#f3d55b"/><path d="m123.589844 14.210938v188.824218h-79.449219v-61.792968c-.042969-54.066407 30.8125-103.40625 79.449219-127.03125zm0 0" fill="#d25627"/><path d="m397.242188 141.242188v61.792968h-79.445313v-188.824218c48.632813 23.625 79.488281 72.964843 79.445313 127.03125zm0 0" fill="#d25627"/><path d="m397.675781 203.035156h24.972657c5.285156-.175781 10.382812 1.972656 13.949218 5.878906s5.242188 9.175782 4.589844 14.425782l-13.003906 79.445312c-1.667969 8.871094-9.515625 15.222656-18.539063 15.007813h-377.863281c-9.019531.207031-16.863281-6.140625-18.539062-15.007813l-13.019532-79.445312c-.652344-5.25 1.027344-10.519532 4.59375-14.421875 3.5625-3.90625 8.660156-6.054688 13.945313-5.882813zm0 0" fill="#f09372"/><path d="m397.050781 203.035156c.925781 24.824219.21875 49.683594-2.121093 74.414063-.210938 14.796875-2.285157 29.507812-6.179688 43.785156-5.988281 12.824219-10.660156 26.222656-13.9375 39.992187-4.765625 32.484376-6.445312 69.207032-32.554688 97.101563-16.589843 17.65625-45.964843 27.1875-68.734374 39.8125-14.886719 10.148437-32.742188 15.027344-50.722657 13.859375h-4.414062c-17.980469 1.160156-35.835938-3.71875-50.730469-13.859375-22.765625-12.625-52.082031-22.15625-68.644531-39.8125-26.113281-27.894531-27.789063-64.617187-32.554688-97.101563-2.382812-16.15625-11.820312-29.925781-16.773437-45.199218-.78125-2.582032-1.429688-5.207032-1.941406-7.855469-1.953126-14.003906-2.722657-28.152344-2.296876-42.285156-1.039062-35.574219-1.304687-27.1875-1.304687-62.851563 0-1.679687 0-3.445312.085937-5.121094" fill="#fdd7ad"/><path d="m220.691406 185.378906h176.550782v38.578125c.003906 14.96875-5.429688 29.429688-15.289063 40.695313l-13.003906 14.863281c-21.289063 24.328125-52.042969 38.28125-84.371094 38.277344-17.507813 0-33.511719-9.890625-41.339844-25.546875-2.992187-5.984375-9.109375-9.765625-15.800781-9.761719h-13.488281c-6.691407 0-12.804688 3.777344-15.792969 9.761719-7.832031 15.65625-23.835938 25.546875-41.339844 25.546875-32.332031 0-63.085937-13.953125-84.375-38.285157l-13.003906-14.867187c-9.859375-11.261719-15.292969-25.71875-15.296875-40.683594v-38.578125zm0 0" fill="#e57e25"/><path d="m177.824219 235.484375-69.488281-14.601563c-3.113282-.542968-6.296876.476563-8.511719 2.730469-2.214844 2.25-3.183594 5.449219-2.585938 8.550781l1.886719 11.910157c2.726562 19.359375 17.683594 34.71875 36.964844 37.957031 20.347656 2.765625 39.859375-9.089844 46.785156-28.421875l1.816406-4.777344c1.074219-2.671875.933594-5.679687-.386718-8.242187-1.316407-2.5625-3.679688-4.425782-6.480469-5.105469zm0 0" fill="#2c3e50"/><path d="m263.558594 235.484375 69.492187-14.601563c3.109375-.542968 6.292969.476563 8.507813 2.730469 2.214844 2.25 3.183594 5.449219 2.585937 8.550781l-1.886719 11.910157c-2.726562 19.359375-17.683593 34.71875-36.960937 37.957031-20.351563 2.765625-39.863281-9.089844-46.789063-28.421875l-1.816406-4.777344c-1.074218-2.671875-.933594-5.679687.386719-8.242187 1.316406-2.5625 3.679687-4.425782 6.480469-5.105469zm0 0" fill="#2c3e50"/><path d="m220.691406 370.757812c-27.929687 0-35.308594-17.320312-35.308594-26.480468-.058593-4.875 3.84375-8.875 8.71875-8.933594s8.875 3.84375 8.933594 8.71875c.125 1.597656 1.539063 9.039062 17.65625 9.039062 4.875 0 8.828125 3.953126 8.828125 8.828126s-3.953125 8.828124-8.828125 8.828124zm0 0" fill="#f09372"/><path d="m220.691406 370.757812c-4.875 0-8.828125-3.953124-8.828125-8.828124s3.953125-8.828126 8.828125-8.828126c16.242188 0 17.558594-7.5625 17.65625-9.082031.324219-4.773437 4.316406-8.460937 9.101563-8.414062 4.734375.078125 8.539062 3.933593 8.550781 8.671875 0 9.160156-7.378906 26.480468-35.308594 26.480468zm0 0" fill="#f09372"/><path d="m264.828125 414.898438h-88.273437c-4.875 0-8.828126-3.953126-8.828126-8.828126s3.953126-8.828124 8.828126-8.828124h88.273437c4.875 0 8.828125 3.953124 8.828125 8.828124s-3.953125 8.828126-8.828125 8.828126zm0 0" fill="#802d40"/><path d="m229.519531 450.207031h-17.65625c-4.875 0-8.828125-3.953125-8.828125-8.828125s3.953125-8.828125 8.828125-8.828125h17.65625c4.875 0 8.828125 3.953125 8.828125 8.828125s-3.953125 8.828125-8.828125 8.828125zm0 0" fill="#f09372"/></svg>