<svg height="512pt" viewBox="0 0 512 512.17099" width="512pt" xmlns="http://www.w3.org/2000/svg"><path d="m79.546875 180.964844 8.828125 101.519531h-44.136719c-24.980469-.628906-44.730469-21.367187-44.1406248-46.34375v-124.691406c-.2968752-12.488281 9.5820318-22.859375 22.0703128-23.171875 12.488281.3125 22.363281 10.683594 22.070312 23.171875v32.441406c-.238281 9.601563 3.347657 18.898437 9.972657 25.855469 6.621093 6.953125 15.734374 10.988281 25.335937 11.21875zm0 0" fill="#71c285"/><path d="m79.546875 220.691406h-44.136719c-4.875 0-8.828125-3.953125-8.828125-8.828125s3.953125-8.828125 8.828125-8.828125h44.136719c4.875 0 8.828125 3.953125 8.828125 8.828125s-3.953125 8.828125-8.828125 8.828125zm0 0" fill="#4c8056"/><path d="m79.546875 256h-35.308594c-4.878906 0-8.828125-3.953125-8.828125-8.828125s3.949219-8.828125 8.828125-8.828125h35.308594c4.875 0 8.828125 3.953125 8.828125 8.828125s-3.953125 8.828125-8.828125 8.828125zm0 0" fill="#4c8056"/><path d="m432.648438 180.964844-8.824219 101.519531h44.136719c24.976562-.628906 44.730468-21.367187 44.136718-46.34375v-124.691406c.296875-12.488281-9.578125-22.859375-22.066406-23.171875-12.492188.3125-22.367188 10.683594-22.070312 23.171875v32.441406c.238281 9.601563-3.351563 18.898437-9.972657 25.855469-6.625 6.953125-15.738281 10.988281-25.339843 11.21875zm0 0" fill="#71c285"/><path d="m476.789062 220.691406h-44.140624c-4.875 0-8.824219-3.953125-8.824219-8.828125s3.949219-8.828125 8.824219-8.828125h44.140624c4.875 0 8.828126 3.953125 8.828126 8.828125s-3.953126 8.828125-8.828126 8.828125zm0 0" fill="#4c8056"/><path d="m467.960938 256h-35.3125c-4.875 0-8.824219-3.953125-8.824219-8.828125s3.949219-8.828125 8.824219-8.828125h35.3125c4.875 0 8.828124 3.953125 8.828124 8.828125s-3.953124 8.828125-8.828124 8.828125zm0 0" fill="#4c8056"/><path d="m432.457031 203.035156c.925781 24.824219.21875 49.683594-2.121093 74.417969-.210938 14.796875-2.285157 29.507813-6.179688 43.785156-5.988281 12.820313-10.660156 26.21875-13.9375 39.988281-4.765625 32.484376-6.445312 69.207032-32.554688 97.101563-16.589843 17.65625-45.964843 27.191406-68.734374 39.8125-14.886719 10.152344-32.742188 15.027344-50.722657 13.859375h-4.414062c-17.980469 1.160156-35.835938-3.71875-50.730469-13.859375-22.765625-12.621094-52.082031-22.15625-68.644531-39.8125-26.109375-27.894531-27.789063-64.617187-32.554688-97.101563-2.382812-16.15625-11.820312-29.925781-16.773437-45.199218-.78125-2.582032-1.429688-5.203125-1.941406-7.855469-1.953126-14.003906-2.722657-28.148437-2.296876-42.285156-1.039062-35.574219-1.304687-27.1875-1.304687-62.851563 0-1.675781 0-3.441406.089844-5.121094zm0 0" fill="#fdd7ad"/><path d="m256.097656 370.757812c-27.929687 0-35.308594-17.316406-35.308594-26.480468-.058593-4.875 3.84375-8.875 8.722657-8.933594 4.875-.058594 8.875 3.84375 8.929687 8.722656.125 1.597656 1.539063 9.039063 17.65625 9.039063 4.875 0 8.828125 3.949219 8.828125 8.828125 0 4.875-3.953125 8.824218-8.828125 8.824218zm0 0" fill="#f09372"/><path d="m256.097656 370.757812c-4.875 0-8.828125-3.949218-8.828125-8.824218 0-4.878906 3.953125-8.828125 8.828125-8.828125 16.242188 0 17.558594-7.566407 17.65625-9.085938.316406-4.773437 4.316406-8.46875 9.101563-8.410156 4.734375.074219 8.539062 3.929687 8.554687 8.667969 0 9.164062-7.382812 26.480468-35.3125 26.480468zm0 0" fill="#f09372"/><path d="m300.238281 414.898438h-88.277343c-4.875 0-8.828126-3.953126-8.828126-8.828126s3.953126-8.828124 8.828126-8.828124h88.277343c4.875 0 8.824219 3.953124 8.824219 8.828124s-3.949219 8.828126-8.824219 8.828126zm0 0" fill="#802d40"/><path d="m264.925781 450.207031h-17.65625c-4.875 0-8.828125-3.953125-8.828125-8.828125s3.953125-8.828125 8.828125-8.828125h17.65625c4.875 0 8.828125 3.953125 8.828125 8.828125s-3.953125 8.828125-8.828125 8.828125zm0 0" fill="#f09372"/><path d="m158.996094 388.414062c-4.875 0-8.828125-3.953124-8.828125-8.828124-1.136719-22.929688-4-45.742188-8.5625-68.246094-.53125-2.597656.132812-5.292969 1.8125-7.347656 1.675781-2.054688 4.1875-3.246094 6.835937-3.246094 4.410156 0 8.144532 3.253906 8.75 7.621094 4.753906 23.480468 7.703125 47.289062 8.820313 71.21875 0 2.34375-.933594 4.585937-2.585938 6.242187-1.65625 1.65625-3.902343 2.585937-6.242187 2.585937zm0 0" fill="#f09372"/><path d="m353.203125 388.414062c-4.875 0-8.828125-3.953124-8.828125-8.828124 1.128906-24.042969 4.097656-47.964844 8.878906-71.554688.808594-4.476562 4.890625-7.609375 9.425782-7.226562 4.53125.378906 8.035156 4.140624 8.089843 8.691406 0 .617187-.058593 1.238281-.175781 1.84375-4.566406 22.503906-7.425781 45.316406-8.5625 68.246094 0 2.34375-.933594 4.585937-2.585938 6.242187-1.65625 1.65625-3.902343 2.585937-6.242187 2.585937zm0 0" fill="#f09372"/><path d="m432.648438 141.242188v82.714843c-.019532 14.960938-5.441407 29.414063-15.269532 40.695313l-13.066406 14.828125c-21.292969 24.289062-52.003906 38.246093-84.300781 38.3125-17.523438.039062-33.558594-9.839844-41.402344-25.511719-2.980469-6-9.101563-9.792969-15.800781-9.796875h-13.417969c-6.699219.003906-12.820313 3.796875-15.800781 9.796875-7.84375 15.671875-23.878906 25.550781-41.402344 25.511719-32.316406.003906-63.054688-13.964844-84.304688-38.3125l-13.0625-14.828125c-9.832031-11.28125-15.253906-25.734375-15.273437-40.695313v-82.714843c-.035156-22.480469 5.324219-44.636719 15.625-64.617188 2.910156-5.605469 6.152344-11.027344 9.710937-16.242188 10.398438-14.761718 23.484376-27.429687 38.574219-37.34375 5.933594-3.941406 12.195313-7.371093 18.714844-10.238281 18.371094-8.5 38.378906-12.8671872 58.617187-12.800781h70.621094c20.238282-.0664062 40.246094 4.300781 58.613282 12.800781 6.519531 2.867188 12.78125 6.296875 18.714843 10.238281 15.089844 9.914063 28.175781 22.582032 38.578125 37.34375 3.558594 5.183594 6.800782 10.578126 9.707032 16.152344v.089844c10.300781 19.980469 15.660156 42.136719 15.625 64.617188zm0 0" fill="#65ddb9"/><path d="m213.230469 235.484375-69.488281-14.601563c-3.113282-.542968-6.292969.476563-8.511719 2.730469-2.214844 2.253907-3.179688 5.449219-2.585938 8.554688l1.890625 11.90625c2.722656 19.359375 17.679688 34.71875 36.960938 37.960937 20.351562 2.761719 39.859375-9.09375 46.785156-28.425781l1.816406-4.777344c1.074219-2.671875.933594-5.679687-.382812-8.242187-1.320313-2.558594-3.683594-4.421875-6.484375-5.105469zm0 0" fill="#2c3e50"/><path d="m298.964844 235.484375 69.492187-14.601563c3.113281-.542968 6.292969.476563 8.507813 2.730469 2.214844 2.253907 3.183594 5.449219 2.585937 8.554688l-1.886719 11.90625c-2.726562 19.359375-17.683593 34.71875-36.960937 37.960937-20.351563 2.761719-39.859375-9.09375-46.789063-28.425781l-1.816406-4.777344c-1.074218-2.671875-.933594-5.679687.386719-8.242187 1.316406-2.558594 3.683594-4.421875 6.480469-5.105469zm0 0" fill="#2c3e50"/><g fill="#46b29d"><path d="m238.441406 220.691406c-4.875 0-8.824218-3.953125-8.824218-8.828125.035156-6.222656-4.269532-11.628906-10.339844-12.996093l-80.585938-18.617188c-6.011718-1.410156-12.199218 1.519531-14.917968 7.0625l-1.023438 2.046875c-1.414062 2.824219-4.222656 4.675781-7.371094 4.863281-3.148437.191406-6.15625-1.316406-7.894531-3.949218-1.738281-2.632813-1.9375-5.992188-.527344-8.8125l1.023438-2.046876c6.375-12.828124 20.730469-19.59375 34.683593-16.339843l80.578126 18.589843c14.085937 3.210938 24.0625 15.753907 24.027343 30.199219 0 4.875-3.949219 8.828125-8.828125 8.828125zm0 0"/><path d="m273.753906 220.691406c-4.875 0-8.828125-3.953125-8.828125-8.828125-.050781-14.449219 9.929688-26.996093 24.019531-30.191406l80.585938-18.625c13.953125-3.253906 28.308594 3.511719 34.683594 16.339844l1.027344 2.046875c1.410156 2.820312 1.207031 6.179687-.527344 8.8125-1.738282 2.632812-4.75 4.140625-7.898438 3.953125-3.148437-.191407-5.957031-2.042969-7.367187-4.863281l-1.023438-2.050782c-2.71875-5.542968-8.910156-8.472656-14.921875-7.058594l-80.59375 18.617188c-6.078125 1.367188-10.378906 6.789062-10.328125 13.019531 0 4.875-3.953125 8.828125-8.828125 8.828125zm0 0"/><path d="m256.097656 176.550781c-4.875 0-8.828125-3.949219-8.828125-8.824219v-44.140624c0-4.875 3.953125-8.828126 8.828125-8.828126s8.828125 3.953126 8.828125 8.828126v44.140624c0 4.875-3.953125 8.824219-8.828125 8.824219zm0 0"/><path d="m256.097656 176.550781c-1.742187.003907-3.449218-.515625-4.898437-1.480469l-26.484375-17.65625c-3.957032-2.738281-4.992188-8.148437-2.320313-12.15625 2.671875-4.003906 8.058594-5.132812 12.113281-2.53125l21.589844 14.40625 21.585938-14.390624c2.621094-1.816407 6.019531-2.074219 8.890625-.675782 2.867187 1.398438 4.757812 4.234375 4.945312 7.417969.183594 3.1875-1.363281 6.226563-4.046875 7.949219l-26.484375 17.652344c-1.449219.960937-3.152343 1.46875-4.890625 1.464843zm0 0"/></g><path d="m223.789062 105.402344c-.960937.347656-1.976562.523437-3 .53125-3.71875-.003906-7.035156-2.332032-8.300781-5.828125-18.890625-51.90625-45.019531-68.414063-63.644531-73.09375-2.242188-.578125-4.171875-2-5.386719-3.972657 5.933594-3.941406 12.195313-7.371093 18.714844-10.238281 21.628906 8.386719 48.113281 29.574219 66.914063 81.300781 1.65625 4.585938-.714844 9.640626-5.296876 11.300782zm0 0" fill="#527f72"/><path d="m189.449219 131.445312c-1.222657.648438-2.585938.984376-3.972657.96875-3.335937.03125-6.390624-1.859374-7.855468-4.855468-14.636719-30.195313-45.097656-49.511719-78.652344-49.875-1.332031-.058594-2.628906-.417969-3.796875-1.058594 2.910156-5.605469 6.152344-11.027344 9.710937-16.242188 37.984376 2.417969 71.75 25.03125 88.453126 59.230469 1.0625 2.082031 1.25 4.503907.519531 6.726563-.726563 2.21875-2.3125 4.058594-4.40625 5.105468zm0 0" fill="#527f72"/><path d="m368.738281 23.039062c-1.214843 1.972657-3.144531 3.394532-5.382812 3.972657-18.628907 4.679687-44.757813 21.1875-63.648438 73.09375-1.265625 3.496093-4.582031 5.824219-8.296875 5.828125-1.023437-.007813-2.039062-.183594-3.003906-.53125-4.582031-1.660156-6.949219-6.714844-5.296875-11.300782 18.804687-51.726562 45.285156-72.914062 66.914063-81.300781 6.519531 2.867188 12.78125 6.296875 18.714843 10.238281zm0 0" fill="#527f72"/><path d="m417.023438 76.535156v.089844c-1.167969.628906-2.464844.988281-3.792969 1.058594-33.554688.363281-64.015625 19.679687-78.65625 49.875-1.464844 2.996094-4.519531 4.886718-7.855469 4.855468-1.382812.015626-2.75-.320312-3.972656-.96875-2.089844-1.046874-3.675782-2.886718-4.40625-5.105468-.730469-2.222656-.542969-4.644532.523437-6.726563 16.699219-34.199219 50.46875-56.8125 88.453125-59.230469 3.558594 5.183594 6.800782 10.578126 9.707032 16.152344zm0 0" fill="#527f72"/></svg>