<svg height="512pt" viewBox="-35 0 512 512.17879" width="512pt" xmlns="http://www.w3.org/2000/svg"><path d="m24.480469 282.492188h24.160156l-4.414063-105.933594h-25.847656c-5.019531-.097656-9.851562 1.917968-13.316406 5.554687-3.46875 3.632813-5.25 8.554688-4.910156 13.566407l6.097656 70.621093c.960938 9.308594 8.875 16.335938 18.230469 16.191407zm0 0" fill="#f09372"/><path d="m417.078125 282.492188h-24.160156l4.414062-105.933594h25.847657c5.019531-.097656 9.851562 1.917968 13.316406 5.554687 3.46875 3.632813 5.25 8.554688 4.910156 13.566407l-6.097656 70.621093c-.960938 9.308594-8.875 16.335938-18.230469 16.191407zm0 0" fill="#f09372"/><path d="m397.136719 203.042969c.925781 24.824219.21875 49.683593-2.117188 74.417969-.210937 14.796874-2.289062 29.507812-6.179687 43.785156-5.992188 12.820312-10.664063 26.21875-13.941406 39.988281-4.765626 32.484375-6.441407 69.207031-32.554688 97.101563-16.585938 17.65625-45.964844 27.191406-68.730469 39.8125-14.890625 10.152343-32.742187 15.027343-50.722656 13.859374h-4.414063c-17.984374 1.160157-35.839843-3.71875-50.734374-13.859374-22.765626-12.621094-52.082032-22.15625-68.644532-39.8125-26.109375-27.894532-27.789062-64.617188-32.554687-97.101563-2.382813-16.15625-11.820313-29.925781-16.773438-45.199219-.78125-2.582031-1.429687-5.203125-1.941406-7.855468-1.953125-14.003907-2.71875-28.148438-2.292969-42.285157-1.042968-35.574219-1.308594-27.1875-1.308594-62.851562 0-1.675781 0-3.441407.089844-5.121094zm0 0" fill="#fdd7ad"/><path d="m247.542969 335.625c-4.765625-.015625-8.738281 3.648438-9.109375 8.402344-.097656 1.519531-1.410156 9.085937-17.65625 9.085937-16.242188 0-17.539063-7.453125-17.652344-9.039062-.058594-4.878907-4.058594-8.78125-8.933594-8.722657-4.875.058594-8.78125 4.058594-8.722656 8.933594 0 9.164063 7.378906 26.480469 35.308594 26.480469 27.933594 0 35.3125-17.316406 35.3125-26.480469-.019532-4.730468-3.816406-8.578125-8.546875-8.660156zm0 0" fill="#f09372"/><path d="m264.917969 414.90625h-88.277344c-4.875 0-8.828125-3.953125-8.828125-8.828125s3.953125-8.828125 8.828125-8.828125h88.277344c4.875 0 8.828125 3.953125 8.828125 8.828125s-3.953125 8.828125-8.828125 8.828125zm0 0" fill="#802d40"/><path d="m229.605469 450.214844h-17.652344c-4.878906 0-8.828125-3.953125-8.828125-8.828125s3.949219-8.828125 8.828125-8.828125h17.652344c4.875 0 8.828125 3.953125 8.828125 8.828125s-3.953125 8.828125-8.828125 8.828125zm0 0" fill="#f09372"/><path d="m123.675781 388.421875c-4.875 0-8.828125-3.953125-8.828125-8.828125-1.136718-22.929688-4-45.742188-8.5625-68.246094-.53125-2.597656.136719-5.292968 1.8125-7.347656 1.675782-2.054688 4.1875-3.246094 6.839844-3.246094 4.410156 0 8.144531 3.253906 8.746094 7.621094 4.757812 23.480469 7.703125 47.289062 8.820312 71.21875 0 2.34375-.929687 4.585938-2.585937 6.242188s-3.902344 2.585937-6.242188 2.585937zm0 0" fill="#f09372"/><path d="m317.882812 388.421875c-4.875 0-8.828124-3.953125-8.828124-8.828125 1.128906-24.042969 4.097656-47.964844 8.878906-71.554688.8125-4.476562 4.890625-7.609374 9.425781-7.226562 4.535156.378906 8.035156 4.140625 8.089844 8.691406 0 .617188-.058594 1.238282-.175781 1.84375-4.5625 22.503906-7.425782 45.316406-8.5625 68.246094 0 2.34375-.929688 4.585938-2.585938 6.242188s-3.902344 2.585937-6.242188 2.585937zm0 0" fill="#f09372"/><path d="m85.1875 41.675781-50.050781-39.460937c-5.472657-3.03125-12.136719-2.945313-17.527344.230468-5.390625 3.175782-8.695313 8.964844-8.691406 15.21875v88.277344c0 19.5 15.808593 35.308594 35.308593 35.308594zm0 0" fill="#e4c05c"/><path d="m26.570312 52.972656h-17.652343c-4.875 0-8.8281252-3.949218-8.8281252-8.824218 0-4.878907 3.9531252-8.828126 8.8281252-8.828126h17.652343c4.878907 0 8.828126 3.949219 8.828126 8.828126 0 4.875-3.949219 8.824218-8.828126 8.824218zm0 0" fill="#b19046"/><path d="m26.570312 88.285156h-17.652343c-4.875 0-8.8281252-3.953125-8.8281252-8.828125s3.9531252-8.828125 8.8281252-8.828125h17.652343c4.878907 0 8.828126 3.953125 8.828126 8.828125s-3.949219 8.828125-8.828126 8.828125zm0 0" fill="#b19046"/><path d="m397.332031 141.25c19.5 0 35.308594-15.808594 35.308594-35.308594v-88.277344c.003906-6.253906-3.304687-12.042968-8.691406-15.21875-5.390625-3.175781-12.054688-3.261718-17.527344-.230468l-50.050781 39.460937zm0 0" fill="#e4c05c"/><path d="m432.640625 52.972656h-17.65625c-4.875 0-8.824219-3.949218-8.824219-8.824218 0-4.878907 3.949219-8.828126 8.824219-8.828126h17.65625c4.875 0 8.828125 3.949219 8.828125 8.828126 0 4.875-3.953125 8.824218-8.828125 8.824218zm0 0" fill="#b19046"/><path d="m432.640625 88.285156h-17.65625c-4.875 0-8.824219-3.953125-8.824219-8.828125s3.949219-8.828125 8.824219-8.828125h17.65625c4.875 0 8.828125 3.953125 8.828125 8.828125s-3.953125 8.828125-8.828125 8.828125zm0 0" fill="#b19046"/><path d="m44.226562 185.386719v38.578125c0 14.96875 5.433594 29.429687 15.289063 40.695312l13.003906 14.863282c21.289063 24.328124 52.046875 38.28125 84.375 38.277343 17.503907 0 33.507813-9.890625 41.339844-25.546875 2.992187-5.984375 9.109375-9.765625 15.800781-9.761718h13.488282c6.6875 0 12.800781 3.777343 15.792968 9.761718 7.828125 15.65625 23.832032 25.546875 41.339844 25.546875 32.328125 0 63.085938-13.953125 84.375-38.285156l13-14.863281c9.859375-11.261719 15.296875-25.71875 15.300781-40.6875v-82.714844c0-78.003906-63.238281-141.2421875-141.242187-141.2421875h-70.621094c-78.003906 0-141.242188 63.2382815-141.242188 141.2421875zm0 0" fill="#285680"/><g fill="#2c3e50"><path d="m177.914062 235.492188-69.492187-14.601563c-3.113281-.542969-6.292969.476563-8.507813 2.730469-2.21875 2.253906-3.183593 5.449218-2.589843 8.554687l1.890625 11.90625c2.722656 19.359375 17.679687 34.71875 36.960937 37.960938 20.351563 2.761719 39.859375-9.09375 46.785157-28.425781l1.820312-4.777344c1.070312-2.671875.929688-5.679688-.386719-8.242188-1.320312-2.558594-3.683593-4.421875-6.480469-5.105468zm0 0"/><path d="m263.644531 235.492188 69.492188-14.601563c3.113281-.542969 6.292969.476563 8.507812 2.730469 2.214844 2.253906 3.183594 5.449218 2.589844 8.554687l-1.890625 11.90625c-2.726562 19.359375-17.679688 34.71875-36.960938 37.960938-20.351562 2.761719-39.859374-9.09375-46.785156-28.425781l-1.820312-4.777344c-1.070313-2.671875-.929688-5.679688.386718-8.242188 1.316407-2.558594 3.683594-4.421875 6.480469-5.105468zm0 0"/><path d="m203.125 226.152344c-4.875 0-8.828125-3.949219-8.828125-8.828125.03125-6.214844-4.265625-11.617188-10.328125-12.984375l-80.597656-18.609375c-6.011719-1.410157-12.199219 1.519531-14.917969 7.0625l-1.023437 2.050781c-1.410157 2.820312-4.21875 4.671875-7.371094 4.863281-3.148438.1875-6.15625-1.320312-7.894532-3.953125-1.738281-2.632812-1.9375-5.992187-.527343-8.8125l1.023437-2.046875c6.375-12.828125 20.734375-19.59375 34.683594-16.339843l80.585938 18.597656c14.082031 3.195312 24.0625 15.726562 24.023437 30.164062 0 2.34375-.929687 4.589844-2.585937 6.25-1.652344 1.65625-3.902344 2.585938-6.242188 2.585938zm0 0"/><path d="m238.433594 226.152344c-4.875 0-8.828125-3.949219-8.828125-8.828125-.050781-14.445313 9.933593-26.992188 24.019531-30.1875l80.578125-18.601563c13.953125-3.25 28.308594 3.511719 34.683594 16.339844l1.027343 2.050781c1.410157 2.820313 1.207032 6.179688-.527343 8.8125-1.738281 2.632813-4.75 4.136719-7.898438 3.949219-3.148437-.1875-5.957031-2.042969-7.367187-4.863281l-1.023438-2.046875c-2.71875-5.546875-8.910156-8.476563-14.921875-7.0625l-80.578125 18.597656c-6.074218 1.367188-10.375 6.78125-10.335937 13.003906.003906 2.34375-.925781 4.589844-2.582031 6.25-1.65625 1.65625-3.902344 2.585938-6.246094 2.585938zm0 0"/></g><path d="m220.777344 35.320312 16.367187 31.964844 36.601563 5.128906-26.484375 24.875 6.25 35.132813-32.734375-16.585937-32.730469 16.585937 6.25-35.132813-26.484375-24.875 36.601562-5.128906zm0 0" fill="#e4c05c"/><path d="m119.261719 79.457031 9.550781 20.339844 21.347656 3.265625-15.449218 15.828125 3.644531 22.359375-19.09375-10.558594-19.09375 10.558594 3.644531-22.359375-15.445312-15.828125 21.34375-3.265625zm0 0" fill="#e4c05c"/><path d="m322.296875 79.457031 9.550781 20.339844 21.34375 3.265625-15.445312 15.828125 3.644531 22.359375-19.09375-10.558594-19.09375 10.558594 3.644531-22.359375-15.449218-15.828125 21.347656-3.265625zm0 0" fill="#e4c05c"/></svg>