<svg height="512pt" viewBox="0 0 512 512.17021" width="512pt" xmlns="http://www.w3.org/2000/svg"><g fill="#e4c05c"><path d="m79.535156 211.863281-28.054687 11.21875c-10.144531 4.054688-17.839844 12.578125-20.84375 23.085938l-30.5507815 106.933593 24.0703125-9.628906c4.921875-1.96875 10.46875-1.625 15.109375.941406 4.636719 2.566407 7.878906 7.082032 8.824219 12.300782l13.789062 75.835937 26.480469-105.929687zm0 0"/><path d="m117.933594 62.058594-29.574219-44.402344-11.652344 17.566406c-1.484375 2.179688-3.859375 3.585938-6.484375 3.839844-2.625.257812-5.230468-.664062-7.109375-2.515625l-36.546875-36.546875v95.867188c-.007812 11.808593 5.890625 22.84375 15.714844 29.394531l37.253906 24.808593zm0 0"/><path d="m432.636719 211.863281 28.054687 11.21875c10.144532 4.054688 17.839844 12.578125 20.839844 23.085938l30.554688 106.933593-24.074219-9.628906c-4.921875-1.96875-10.46875-1.625-15.105469.941406-4.640625 2.566407-7.878906 7.082032-8.824219 12.300782l-13.789062 75.835937-26.484375-105.929687zm0 0"/><path d="m432.636719 150.070312 37.253906-24.808593c9.824219-6.550781 15.71875-17.585938 15.710937-29.394531v-95.867188l-36.546874 36.546875c-1.878907 1.851563-4.480469 2.773437-7.105469 2.515625-2.625-.253906-5-1.660156-6.488281-3.839844l-11.652344-17.566406-29.570313 44.402344zm0 0"/></g><path d="m432.441406 203.035156c.929688 24.824219.21875 49.683594-2.117187 74.414063-.210938 14.796875-2.289063 29.507812-6.179688 43.785156-5.992187 12.824219-10.660156 26.222656-13.9375 39.992187-4.769531 32.484376-6.445312 69.207032-32.558593 97.101563-16.585938 17.65625-45.964844 27.1875-68.730469 39.8125-14.886719 10.148437-32.742188 15.027344-50.722657 13.859375h-4.414062c-17.980469 1.160156-35.835938-3.71875-50.730469-13.859375-22.769531-12.625-52.085937-22.15625-68.644531-39.8125-26.113281-27.894531-27.789062-64.617187-32.558594-97.101563-2.382812-16.15625-11.816406-29.925781-16.769531-45.199218-.78125-2.582032-1.429687-5.207032-1.941406-7.855469-1.957031-14.003906-2.722657-28.152344-2.296875-42.285156-1.042969-35.574219-1.304688-27.1875-1.304688-62.851563 0-1.679687 0-3.445312.085938-5.121094zm0 0" fill="#fdd7ad"/><path d="m428.488281 300.316406c-39.265625 2.074219-77.34375 14.167969-110.609375 35.132813 0 0-8.828125-26.484375-61.792968-26.484375-52.964844 0-61.792969 26.484375-61.792969 26.484375-33.753907-21.328125-72.488281-33.46875-112.375-35.222657l-2.382813-97.191406v-44.136718c0-78.007813 63.234375-141.242188 141.238282-141.242188h70.621093c78.007813 0 141.242188 63.234375 141.242188 141.242188v44.136718zm0 0" fill="#cc4b4c"/><path d="m256.085938 388.414062c-27.929688 0-35.3125-17.320312-35.3125-26.484374-.058594-4.875 3.847656-8.875 8.722656-8.933594s8.875 3.847656 8.933594 8.722656c.113281 1.597656 1.535156 9.039062 17.65625 9.039062 16.117187 0 17.558593-7.5625 17.65625-9.082031.292968-4.679687 4.136718-8.34375 8.824218-8.414062h.273438c4.738281.078125 8.542968 3.933593 8.554687 8.667969 0 9.164062-7.378906 26.484374-35.308593 26.484374zm0 0" fill="#f09372"/><path d="m300.222656 423.722656h-88.277344c-4.875 0-8.824218-3.949218-8.824218-8.824218 0-4.878907 3.949218-8.828126 8.824218-8.828126h88.277344c4.875 0 8.828125 3.949219 8.828125 8.828126 0 4.875-3.953125 8.824218-8.828125 8.824218zm0 0" fill="#802d40"/><path d="m264.914062 459.035156h-17.65625c-4.875 0-8.828124-3.953125-8.828124-8.828125s3.953124-8.828125 8.828124-8.828125h17.65625c4.875 0 8.828126 3.953125 8.828126 8.828125s-3.953126 8.828125-8.828126 8.828125zm0 0" fill="#f09372"/><path d="m136.640625 212.542969c27.359375 9.933593 55.808594 16.5625 84.742187 19.746093 3.046876.429688 5.703126 2.300782 7.136719 5.019532 1.433594 2.722656 1.476563 5.96875.113281 8.726562l-3.410156 6.902344c-10.886718 22.332031-35.925781 33.992188-60.027344 27.949219-20.9375-5.382813-36.539062-22.890625-39.476562-44.308594l-1.949219-13.8125c-.5-3.355469.828125-6.71875 3.484375-8.828125 2.652344-2.109375 6.230469-2.640625 9.386719-1.394531zm0 0" fill="#2c3e50"/><path d="m375.53125 212.542969c-27.359375 9.933593-55.8125 16.5625-84.746094 19.746093-3.046875.429688-5.699218 2.300782-7.132812 5.019532-1.4375 2.722656-1.476563 5.96875-.113282 8.726562l3.40625 6.902344c10.890626 22.332031 35.929688 33.992188 60.027344 27.949219 20.9375-5.382813 36.539063-22.890625 39.476563-44.308594l1.953125-13.8125c.496094-3.355469-.832032-6.71875-3.484375-8.828125-2.65625-2.109375-6.234375-2.640625-9.386719-1.394531zm0 0" fill="#2c3e50"/><path d="m263.890625 67.75 14.625 27.695312c1.332031 2.519532 3.796875 4.242188 6.621094 4.625l31.671875 4.296876c3.398437.460937 6.222656 2.847656 7.242187 6.121093 1.019531 3.273438.050781 6.84375-2.484375 9.152344l-22.136718 20.160156c-2.253907 2.054688-3.289063 5.125-2.738282 8.125l5.296875 29.03125c.601563 3.28125-.695312 6.625-3.355469 8.636719-2.660156 2.011719-6.230468 2.351562-9.222656.878906l-29.46875-14.476562c-2.453125-1.207032-5.328125-1.207032-7.785156 0l-29.464844 14.476562c-2.988281 1.433594-6.527344 1.074219-9.164062-.929687-2.640625-2.007813-3.929688-5.324219-3.34375-8.585938l5.292968-29.03125c.554688-3-.480468-6.070312-2.734374-8.125l-22.132813-20.160156c-2.53125-2.308594-3.5-5.878906-2.480469-9.152344 1.019532-3.273437 3.84375-5.660156 7.238282-6.121093l31.675781-4.296876c2.824219-.382812 5.289062-2.105468 6.621093-4.625l14.625-27.695312c1.53125-2.886719 4.53125-4.691406 7.800782-4.691406 3.265625 0 6.269531 1.804687 7.800781 4.691406zm0 0" fill="#f0c419"/></svg>