<svg height="512pt" viewBox="-71 0 512 512.1707" width="512pt" xmlns="http://www.w3.org/2000/svg"><path d="m337.476562 376.671875c-3.792968 28.25-8.386718 58.085937-30.453124 81.65625-16.597657 17.65625-45.992188 27.1875-68.679688 39.8125-14.898438 10.152344-32.765625 15.03125-50.757812 13.859375h-4.414063c-17.992187 1.160156-35.855469-3.71875-50.757813-13.859375-22.777343-12.625-51.996093-22.15625-68.589843-39.8125-22.070313-23.570313-26.75-53.40625-30.457031-81.742187v-.089844l-4.800782-127.117188 159.953125-33.101562 137.851563 39.722656zm0 0" fill="#fdd7ad"/><g fill="#804169"><path d="m335.269531 138.0625c-3.265625-65.941406-57.203125-138.0625-123.320312-138.0625h-52.964844c-66.121094 0-120.054687 72.121094-123.320313 138.0625zm0 0"/><path d="m362.019531 282.484375c-1.765625 33.011719-11.210937 91.097656-52.964843 132.941406l-.089844.089844.089844-.089844c14.472656-34.117187 19.179687-71.585937 13.59375-108.226562zm0 0"/><path d="m8.828125 282.484375c1.765625 33.011719 11.210937 91.097656 52.964844 132.941406l.085937.089844-.085937-.089844c-14.519531-34.136719-19.226563-71.648437-13.59375-108.3125zm0 0"/></g><path d="m185.464844 97.101562c-4.875 0-8.824219-3.949218-8.824219-8.824218v-52.96875c0-4.875 3.949219-8.824219 8.824219-8.824219 4.878906 0 8.828125 3.949219 8.828125 8.824219v52.96875c0 4.875-3.949219 8.824218-8.828125 8.824218zm0 0" fill="#3d324c"/><path d="m185.464844 353.101562c-27.929688 0-35.308594-17.316406-35.308594-26.480468-.058594-4.875 3.847656-8.875 8.722656-8.933594s8.875 3.847656 8.933594 8.722656c.113281 1.597656 1.535156 9.039063 17.652344 9.039063 16.121094 0 17.558594-7.566407 17.65625-9.085938.296875-4.675781 4.140625-8.34375 8.828125-8.410156h.273437c4.738282.074219 8.539063 3.929687 8.554688 8.667969 0 9.164062-7.378906 26.480468-35.3125 26.480468zm0 0" fill="#f09372"/><path d="m238.433594 397.242188h-105.933594c-4.875 0-8.828125-3.953126-8.828125-8.828126s3.953125-8.828124 8.828125-8.828124h105.933594c4.875 0 8.824218 3.953124 8.824218 8.828124s-3.949218 8.828126-8.824218 8.828126zm0 0" fill="#802d40"/><path d="m194.292969 432.550781h-17.652344c-4.875 0-8.828125-3.953125-8.828125-8.828125s3.953125-8.824218 8.828125-8.824218h17.652344c4.875 0 8.828125 3.949218 8.828125 8.824218s-3.953125 8.828125-8.828125 8.828125zm0 0" fill="#f09372"/><path d="m185.464844 88.277344c89.160156 0 98.066406 26.480468 133.722656 44.136718 35.652344 17.65625 35.664062-8.828124 35.664062-8.828124 26.746094 123.585937 26.746094 185.378906-53.488281 185.378906s-89.148437-52.964844-115.898437-52.964844c-26.746094 0-35.660156 52.964844-115.894532 52.964844-80.234374 0-80.234374-61.792969-53.488281-185.378906 0 0 0 26.484374 35.664063 8.828124 35.664062-17.65625 44.5625-44.136718 133.71875-44.136718zm0 0" fill="#cc66a1"/><path d="m150.15625 223.796875s-27.003906-83.765625-108.003906-46.539063c0 0-27.003906 65.148438 27.003906 83.765626 54.003906 18.617187 81-37.226563 81-37.226563zm0 0" fill="#2c3e50"/><path d="m220.777344 223.796875s27.003906-83.765625 108.003906-46.539063c0 0 27.003906 65.148438-27.003906 83.765626-54.003906 18.617187-81-37.226563-81-37.226563zm0 0" fill="#2c3e50"/></svg>