<svg height="512pt" viewBox="-62 0 512 512.17101" width="512pt" xmlns="http://www.w3.org/2000/svg"><path d="m348.421875 361.136719v.089843c-4.765625 32.484376-6.445313 69.207032-32.574219 97.101563-16.59375 17.65625-45.992187 27.1875-68.679687 39.8125-14.898438 10.152344-32.765625 15.03125-50.757813 13.859375h-4.414062c-17.988282 1.160156-35.851563-3.71875-50.757813-13.859375-22.773437-12.625-51.996093-22.15625-68.589843-39.8125-26.128907-27.894531-27.808594-64.617187-32.574219-97.101563v-.179687l154.21875-127.953125zm0 0" fill="#fdd7ad"/><path d="m194.292969 370.757812c-10.628907-.398437-20.367188-6.046874-25.988281-15.078124l-16.585938-24.054688c-2.730469-4.011719-1.710938-9.472656 2.285156-12.226562 3.992188-2.757813 9.460938-1.773438 12.242188 2.199218l16.570312 24.0625c2.113282 4.421875 6.578125 7.234375 11.476563 7.234375 4.898437 0 9.363281-2.8125 11.476562-7.234375l16.585938-24.0625c2.78125-3.972656 8.25-4.957031 12.246093-2.199218 3.992188 2.753906 5.011719 8.214843 2.285157 12.226562l-16.589844 24.054688c-5.625 9.035156-15.371094 14.683593-26.003906 15.078124zm0 0" fill="#f09372"/><path d="m247.257812 406.070312h-105.929687c-4.875 0-8.828125-3.953124-8.828125-8.828124s3.953125-8.828126 8.828125-8.828126h105.929687c4.875 0 8.828126 3.953126 8.828126 8.828126s-3.953126 8.828124-8.828126 8.828124zm0 0" fill="#802d40"/><path d="m203.121094 441.378906h-17.65625c-4.875 0-8.828125-3.953125-8.828125-8.828125s3.953125-8.828125 8.828125-8.828125h17.65625c4.875 0 8.828125 3.953125 8.828125 8.828125s-3.953125 8.828125-8.828125 8.828125zm0 0" fill="#f09372"/><path d="m17.5625 250.703125c-.40625 15.394531.328125 30.796875 2.207031 46.082031.355469 3.175782.796875 6.355469 1.324219 9.621094.179688.792969.265625 1.675781.441406 2.472656.089844.527344.179688.96875.265625 1.5 2.699219 17.925782 8.90625 35.144532 18.273438 50.667969 5.652343 9.191406 13.671875 16.691406 23.21875 21.71875 5.472656 2.53125 11.859375 2.09375 16.9375-1.160156 5.082031-3.253907 8.144531-8.875 8.132812-14.90625v-22.421875c.027344-9.738282 7.914063-17.628906 17.652344-17.65625h176.550781c9.742188.027344 17.628906 7.917968 17.65625 17.65625v22.421875c-.015625 6.03125 3.050782 11.652343 8.128906 14.90625 5.078126 3.253906 11.46875 3.691406 16.941407 1.160156 9.472656-5.015625 17.453125-12.449219 23.128906-21.539063v-.089843c23.304687-35.574219 23.039063-95.160157 22.597656-110.34375l-52.347656-219.191407c-25.148437-20.503906-56.621094-31.6718745-89.070313-31.601562h-70.621093c-29.691407-.0585938-58.640625 9.273438-82.714844 26.660156zm0 0" fill="#f29c1f"/><path d="m348.421875 361.136719v.089843c-5.675781 9.089844-13.65625 16.523438-23.128906 21.539063-5.472657 2.53125-11.863281 2.09375-16.941407-1.160156-5.078124-3.253907-8.144531-8.875-8.128906-14.90625v-22.421875c-.027344-9.738282-7.914062-17.628906-17.65625-17.65625h-88.273437v-326.621094h35.308593c32.449219-.0703125 63.921876 11.097656 89.070313 31.601562l52.347656 219.191407c.441407 15.183593.707031 74.769531-22.597656 110.34375zm0 0" fill="#f0c419"/><path d="m176.636719 214.351562v71.664063c0 25.421875-20.039063 44.375-41.808594 39.917969-52.203125-10.636719-134.7421875-43.988282-134.7421875-148.09375 0-152.238282 79.4492185-151.355469 79.4492185-151.355469s-7.238281 124.917969 70.105469 148.453125c16.652344 5.816406 27.589844 21.785156 26.996094 39.414062zm0 0" fill="#d25627"/><path d="m211.949219 214.414062v71.601563c0 25.421875 20.035156 44.375 41.804687 39.917969 52.207032-10.648438 134.746094-43.988282 134.746094-148.09375 0-152.238282-70.621094-151.355469-70.621094-151.355469s0 125.015625-78.8125 148.488281c-16.722656 5.761719-27.726562 21.761719-27.117187 39.441406zm0 0" fill="#d25627"/><g fill="#2c3e50"><path d="m80.804688 196.695312c17.671874 14.683594 38.933593 24.402344 61.597656 28.160157 2.851562.417969 5.328125 2.179687 6.65625 4.730469 1.332031 2.554687 1.359375 5.59375.070312 8.167968l-2.027344 3.804688c-12.578124 21.902344-40.332031 29.765625-62.527343 17.714844-15.707031-7.972657-24.621094-25.035157-22.203125-42.484376l2.253906-14.769531c.714844-3.441406 3.214844-6.234375 6.550781-7.332031 3.339844-1.097656 7.007813-.332031 9.628907 2.007812zm0 0"/><path d="m307.78125 196.695312c-17.675781 14.683594-38.933594 24.402344-61.601562 28.160157-2.847657.417969-5.324219 2.179687-6.65625 4.730469-1.332032 2.554687-1.355469 5.59375-.070313 8.167968l2.03125 3.804688c12.574219 21.902344 40.332031 29.765625 62.527344 17.714844 15.707031-7.972657 24.621093-25.035157 22.199219-42.484376l-2.25-14.769531c-.71875-3.441406-3.214844-6.234375-6.554688-7.332031-3.335938-1.097656-7.007812-.332031-9.625 2.007812zm0 0"/></g></svg>