<svg height="512pt" viewBox="-26 0 512 512.16318" width="512pt" xmlns="http://www.w3.org/2000/svg"><path d="m93.949219 59.402344-80.066407-57.996094c-2.875-1.832031-6.539062-1.878906-9.457031-.117188-2.917969 1.757813-4.589843 5.019532-4.316406 8.414063l13.15625 143.714844c1.917969 18.261719 17.386719 32.085937 35.75 31.953125h3.265625zm0 0" fill="#e4c05c"/><path d="m406.972656 185.371094h3.269532c18.363281.132812 33.828124-13.691406 35.75-31.953125l13.152343-143.714844c.277344-3.394531-1.394531-6.65625-4.3125-8.414063-2.921875-1.761718-6.582031-1.714843-9.457031.117188l-80.066406 57.996094zm0 0" fill="#e4c05c"/><path d="m74.261719 93.125c-1.910157.003906-3.769531-.617188-5.296875-1.765625l-30.011719-22.511719c-2.523437-1.890625-3.84375-4.988281-3.46875-8.117187.378906-3.132813 2.398437-5.824219 5.296875-7.0625s6.242188-.835938 8.765625 1.054687l30.011719 22.511719c3.039062 2.28125 4.28125 6.25 3.078125 9.855469-1.199219 3.601562-4.574219 6.035156-8.375 6.035156zm0 0" fill="#b19046"/><path d="m384.992188 93.125c-3.796876 0-7.171876-2.433594-8.371094-6.035156-1.203125-3.605469.035156-7.574219 3.078125-9.855469l30.011719-22.511719c3.902343-2.925781 9.433593-2.132812 12.359374 1.765625 2.925782 3.902344 2.132813 9.433594-1.765624 12.359375l-30.015626 22.511719c-1.523437 1.148437-3.382812 1.769531-5.296874 1.765625zm0 0" fill="#b19046"/><path d="m53.078125 203.027344v-44.136719c0-78.007813 63.234375-141.242187 141.238281-141.242187h70.621094c78.007812 0 141.242188 63.234374 141.242188 141.242187v44.136719h-.195313c.929687 24.824218.21875 49.683594-2.117187 74.417968-.210938 14.796876-2.285157 29.507813-6.179688 43.785157-5.992188 12.820312-10.660156 26.21875-13.9375 39.988281-4.769531 32.484375-6.445312 69.207031-32.558594 97.101562-16.585937 17.65625-45.964844 27.191407-68.730468 39.8125-14.886719 10.152344-32.742188 15.027344-50.722657 13.859376h-4.414062c-17.980469 1.160156-35.835938-3.71875-50.730469-13.859376-22.769531-12.621093-52.085938-22.15625-68.644531-39.8125-26.113281-27.894531-27.789063-64.617187-32.554688-97.101562-2.386719-16.15625-11.820312-29.925781-16.773437-45.199219-.78125-2.582031-1.429688-5.203125-1.941406-7.855469-1.957032-14.003906-2.722657-28.148437-2.296876-42.285156-1.042968-35.574218-1.304687-27.1875-1.304687-62.851562 0-1.675782 0-3.441406.085937-5.121094zm0 0" fill="#285680"/><path d="m118.046875 132.769531 91.929687 27.179688c12.828126 3.796875 26.476563 3.796875 39.300782 0l91.933594-27.179688c3.007812-.8125 6.222656-.019531 8.511718 2.09375 2.289063 2.117188 3.332032 5.257813 2.757813 8.320313l-5.753907 35.726562c-.5625 3.488282-.148437 7.0625 1.199219 10.328125l21.496094 51.890625c2.070313 5.011719 1.910156 10.671875-.441406 15.5625l-20.515625 42.460938c-1.722656 3.570312-2.875 7.386718-3.414063 11.316406l-15.671875 113.566406c-.808594 6.179688-4.683594 11.53125-10.300781 14.230469l-74.636719 35.105469c-9.371094 4.421875-20.230468 4.421875-29.597656 0l-74.640625-35.105469c-5.625-2.691406-9.511719-8.046875-10.328125-14.230469l-15.667969-113.550781c-.539062-3.925781-1.691406-7.746094-3.414062-11.316406l-20.515625-42.460938c-2.355469-4.886719-2.515625-10.546875-.441406-15.5625l21.503906-51.898437c1.347656-3.265625 1.761718-6.839844 1.199218-10.328125l-5.753906-35.722657c-.574218-3.066406.464844-6.207031 2.75-8.324218 2.289063-2.117188 5.503906-2.910156 8.511719-2.101563zm0 0" fill="#fdd7ad"/><path d="m135.800781 212.101562 59.550781 13.347657c3.304688.765625 6.003907 3.144531 7.171876 6.332031 1.171874 3.1875.652343 6.746094-1.371094 9.46875l-5.808594 7.804688c-8.972656 12.125-24.144531 17.972656-38.929688 15.007812-15.519531-3.171875-27.609374-15.355469-30.660156-30.898438l-1.84375-9.277343c-.6875-3.308594.347656-6.738281 2.746094-9.117188 2.402344-2.378906 5.839844-3.382812 9.144531-2.667969zm0 0" fill="#35495e"/><path d="m323.457031 212.101562-59.550781 13.347657c-3.308594.765625-6.003906 3.144531-7.175781 6.332031-1.167969 3.1875-.652344 6.746094 1.375 9.46875l5.808593 7.804688c8.972657 12.125 24.140626 17.972656 38.929688 15.007812 15.519531-3.171875 27.609375-15.355469 30.660156-30.898438l1.84375-9.277343c.6875-3.308594-.347656-6.738281-2.75-9.117188-2.398437-2.378906-5.839844-3.382812-9.140625-2.667969zm0 0" fill="#35495e"/><path d="m229.628906 344.269531c-27.929687 0-35.3125-17.320312-35.3125-26.484375-.058594-4.875 3.847656-8.875 8.722656-8.933594 4.875-.058593 8.875 3.847657 8.933594 8.722657.117188 1.597656 1.535156 9.039062 17.65625 9.039062 16.117188 0 17.558594-7.566406 17.65625-9.082031.292969-4.679688 4.136719-8.34375 8.824219-8.414062h.273437c4.738282.078124 8.542969 3.929687 8.554688 8.667968 0 9.164063-7.378906 26.484375-35.308594 26.484375zm0 0" fill="#f09372"/><path d="m273.765625 379.578125h-88.273437c-4.878907 0-8.828126-3.953125-8.828126-8.828125s3.949219-8.824219 8.828126-8.824219h88.273437c4.875 0 8.828125 3.949219 8.828125 8.824219s-3.953125 8.828125-8.828125 8.828125zm0 0" fill="#802d40"/><path d="m238.457031 414.890625h-17.65625c-4.875 0-8.828125-3.953125-8.828125-8.828125s3.953125-8.828125 8.828125-8.828125h17.65625c4.875 0 8.828125 3.953125 8.828125 8.828125s-3.953125 8.828125-8.828125 8.828125zm0 0" fill="#f09372"/></svg>