<svg height="512pt" viewBox="0 0 512 512" width="512pt" xmlns="http://www.w3.org/2000/svg"><path d="m203.035156 264.828125s-3.804687 116.929687 57.917969 182.308594c3.527344 3.570312 5.375 8.46875 5.089844 13.480469-.289063 5.015624-2.6875 9.667968-6.601563 12.816406-18.792968 14.707031-59.195312 35.742187-138.125 38.308594-9.246094.320312-17.1875-6.503907-18.261718-15.695313-4.707032-41.171875-14.074219-153.261719 11.703124-231.21875zm0 0" fill="#4482c3"/><path d="m211.863281 344.277344-.441406.085937c-5.746094-26.117187-8.558594-52.792969-8.386719-79.535156h70.621094s8.828125 70.621094-61.792969 79.449219zm0 0" fill="#f29c1f"/><path d="m202.59375 455.503906c-31.414062 16.4375-67.660156 21.128906-102.222656 13.242188-4.238282-51.730469-6.886719-139.476563 14.386718-203.917969l52.789063-1.324219c-.96875 18.625-3.441406 121.46875 38.3125 179.023438 1.460937 2.109375 1.9375 4.742187 1.3125 7.230468-.625 2.484376-2.296875 4.578126-4.578125 5.746094zm0 0" fill="#285680"/><path d="m97.101562 70.621094h203.035157c9.75 0 17.65625 7.902344 17.65625 17.65625v158.894531c0 9.75-7.90625 17.65625-17.65625 17.65625h-203.035157c-53.625 0-97.101562-43.476563-97.101562-97.105469s43.476562-97.101562 97.101562-97.101562zm0 0" fill="#cc4b4c"/><path d="m61.792969 0h167.722656c9.753906 0 17.65625 7.90625 17.65625 17.65625s-7.902344 17.652344-17.65625 17.652344h-167.722656c-4.875 0-8.828125-3.949219-8.828125-8.824219v-17.65625c0-4.875 3.953125-8.828125 8.828125-8.828125zm0 0" fill="#f29c1f"/><path d="m105.929688 35.308594h79.449218v35.3125h-79.449218zm0 0" fill="#802f34"/><path d="m512 167.722656c-.035156 9.054688-6.914062 16.613282-15.925781 17.5-9.007813.890625-17.230469-5.183594-19.03125-14.054687l-159.25 31.867187v-70.621094l159.25 31.867188c1.800781-8.871094 10.023437-14.945312 19.03125-14.058594 9.011719.886719 15.890625 8.449219 15.925781 17.5zm0 0" fill="#90bae1"/><g fill="#b0d3f0"><path d="m353.101562 247.171875c-4.875 0-8.824218-3.953125-8.824218-8.828125v-141.242188c0-4.875 3.949218-8.824218 8.824218-8.824218 4.878907 0 8.828126 3.949218 8.828126 8.824218v141.242188c0 4.875-3.949219 8.828125-8.828126 8.828125zm0 0"/><path d="m397.242188 220.691406c-4.875 0-8.828126-3.953125-8.828126-8.828125v-88.277343c0-4.875 3.953126-8.828126 8.828126-8.828126s8.828124 3.953126 8.828124 8.828126v88.277343c0 4.875-3.953124 8.828125-8.828124 8.828125zm0 0"/><path d="m441.378906 203.035156c-4.875 0-8.828125-3.953125-8.828125-8.828125v-52.964843c0-4.875 3.953125-8.828126 8.828125-8.828126s8.828125 3.953126 8.828125 8.828126v52.964843c0 4.875-3.953125 8.828125-8.828125 8.828125zm0 0"/></g><path d="m282.484375 114.757812h-185.382813c-4.875 0-8.824218-3.953124-8.824218-8.828124s3.949218-8.828126 8.824218-8.828126h185.382813c4.875 0 8.824219 3.953126 8.824219 8.828126s-3.949219 8.828124-8.824219 8.828124zm0 0" fill="#fb7b76"/><path d="m150.070312 432.550781c0 4.875-3.953124 8.828125-8.828124 8.828125s-8.828126-3.953125-8.828126-8.828125 3.953126-8.828125 8.828126-8.828125 8.828124 3.953125 8.828124 8.828125zm0 0" fill="#2c3e50"/></svg>