<svg height="504pt" viewBox="0 0 504.75109 504" width="504pt" xmlns="http://www.w3.org/2000/svg"><path d="m251.746094 96.960938c.347656-41.566407 3.734375-73.414063 34.625-96.585938-4.566406 21.308594 6.25 42.9375 26.035156 52.066406 0 0 2.863281-43.386718 60.746094-52.066406 0 0-26.902344 60.484375 8.070312 86.78125l25.339844 10.414062c54.0625 9.804688 61.351562-55.628906 44.691406-97.195312 0 0 78.101563 52.066406 34.710938 130.171875-43.386719 78.101563-43.386719 95.457031-26.03125 112.8125 26.03125 26.03125 43.386718-17.355469 43.386718-17.355469s0 60.746094-34.710937 95.457032c-34.710937 34.710937-34.710937 86.777343 0 86.777343s34.710937-26.03125 34.710937-26.03125c4.5 27.296875-1.714843 55.277344-17.355468 78.101563-26.03125 34.710937-26.03125 43.390625-26.03125 43.390625h-399.1875c-.917969-33.445313-9.847656-66.179688-26.035156-95.460938-26.03125-43.386719-34.710938-43.386719-34.710938-95.457031 0 0 26.035156 34.714844 43.390625 8.679688 17.355469-26.035157-17.355469-95.457032-43.390625-112.8125 0 0 78.101562 26.03125 52.066406-86.78125-26.03125-112.8125 34.714844-121.492188 34.714844-121.492188s0 52.066406 26.03125 43.390625c26.035156-8.679687 26.035156-43.390625 26.035156-43.390625 22.324219 26.921875 34.917969 60.582031 35.753906 95.546875l38.3125 30.890625zm0 0" fill="#f29c1f"/><path d="m100.847656 503.699219c-3.792968-23.050781-20.308594-86.554688-36.371094-113.320313-5.5625-9.273437-10.414062-16.660156-14.5-23.003906-1.222656-1.875-2.335937-3.582031-3.339843-5.164062 10.515625-4.417969 19.453125-11.910157 25.640625-21.496094 19.890625-29.839844 8.453125-74.003906-10.125-108.59375 4.671875-3.503906 8.867187-7.605469 12.476562-12.191406 18.617188-23.433594 22.296875-58.046876 11.28125-105.871094-3.480468-14.039063-5.355468-28.425782-5.585937-42.886719 7.90625 5.492187 17.328125 8.386719 26.953125 8.277344 5.621094-.023438 11.203125-.953125 16.53125-2.75 4.347656-1.445313 8.542968-3.320313 12.511718-5.605469 2.101563 8.527344 3.308594 17.253906 3.601563 26.03125l.566406 15.855469 71.921875 58.011719 73.917969-56.8125.148437-16.921876c.0625-7.335937.253907-13.746093.589844-19.421874 3.164063 2.078124 6.445313 3.96875 9.832032 5.65625l46.722656 23.363281.546875-8.296875c4.558593 6.226562 10.019531 11.742187 16.203125 16.367187l3.546875 2.671875 32.847656 13.503906 3.617187.660157c5.480469 1.007812 11.039063 1.523437 16.609376 1.542969 10.878906.09375 21.644531-2.195313 31.546874-6.699219-34.042968 62.566406-49.90625 104.570312-13.140624 141.335937 5.648437 5.769532 12.304687 10.453125 19.640624 13.824219-2.882812 5.578125-6.574218 10.699219-10.960937 15.1875-31.710937 31.710937-44.378906 76.730469-30.808594 109.480469 7.3125 18.476562 23.644531 31.863281 43.191407 35.40625-7.523438 10.144531-22.378907 53.945312-27.128907 61.859375zm0 0" fill="#e57e25"/><path d="m390.507812 401.644531v84.695313c0 9.585937-7.769531 17.359375-17.355468 17.359375h-216.949219c-9.585937 0-17.355469-7.773438-17.355469-17.359375v-69.941406zm0 0" fill="#fdd7ad"/><path d="m161.410156 416.917969s-81.382812 5.421875-77.476562-81.355469c3.90625-86.78125 3.929687-109.558594 3.929687-109.558594s.757813-17.355468 25.871094-17.355468h302.808594v138.847656c-.046875 38.320312-31.101563 69.375-69.425781 69.421875zm0 0" fill="#fdd7ad"/><path d="m347.117188 425.597656h-26.03125c-4.792969 0-8.679688-3.886718-8.679688-8.679687s3.886719-8.679688 8.679688-8.679688h26.03125c33.53125-.042969 60.703124-27.214843 60.746093-60.742187v-138.847656c0-4.792969 3.886719-8.679688 8.679688-8.679688s8.675781 3.886719 8.675781 8.679688v138.847656c-.042969 43.113281-34.984375 78.058594-78.101562 78.101562zm0 0" fill="#f09372"/><path d="m138.847656 208.648438v-86.78125c0-19.171876 15.539063-34.710938 34.710938-34.710938s34.710937 15.539062 34.710937 34.710938v86.78125h-43.386719" fill="#fdd7ad"/><path d="m273.007812 226.003906c3.0625-5.273437 4.679688-11.261718 4.6875-17.355468v-86.78125c0-19.171876-15.542968-34.710938-34.710937-34.710938-19.171875 0-34.714844 15.539062-34.714844 34.710938v86.78125" fill="#fdd7ad"/><path d="m312.40625 87.15625c19.171875 0 34.710938 15.539062 34.710938 34.710938v86.78125c0 19.167968-15.539063 34.710937-34.710938 34.710937s-34.710938-15.542969-34.710938-34.710937v-86.78125c0-19.171876 15.539063-34.710938 34.710938-34.710938zm0 0" fill="#fdd7ad"/><path d="m381.832031 87.15625c19.167969 0 34.710938 15.539062 34.710938 34.710938v86.78125c0 19.167968-15.542969 34.710937-34.710938 34.710937-19.171875 0-34.714843-15.542969-34.714843-34.710937v-86.78125c0-19.171876 15.542968-34.710938 34.714843-34.710938zm0 0" fill="#fdd7ad"/><g fill="#f09372"><path d="m208.269531 217.324219c-4.792969 0-8.675781-3.886719-8.675781-8.675781v-86.78125c0-14.378907-11.65625-26.035157-26.035156-26.035157s-26.03125 11.65625-26.03125 26.035157v86.78125c0 4.789062-3.886719 8.675781-8.679688 8.675781-4.792968 0-8.679687-3.886719-8.679687-8.675781v-86.78125c0-23.964844 19.429687-43.390626 43.390625-43.390626 23.964844 0 43.390625 19.425782 43.390625 43.390626v86.78125c0 4.789062-3.886719 8.675781-8.679688 8.675781zm0 0"/><path d="m273 234.679688c-3.101562 0-5.964844-1.652344-7.515625-4.339844-1.550781-2.683594-1.550781-5.992188 0-8.675782 2.3125-3.949218 3.53125-8.441406 3.53125-13.015624v-86.78125c0-14.378907-11.65625-26.035157-26.03125-26.035157-14.378906 0-26.035156 11.65625-26.035156 26.035157v86.78125c0 4.789062-3.886719 8.675781-8.679688 8.675781s-8.675781-3.886719-8.675781-8.675781v-86.78125c0-23.964844 19.425781-43.390626 43.390625-43.390626 23.960937 0 43.386719 19.425782 43.386719 43.390626v86.78125c-.011719 7.617187-2.027344 15.097656-5.839844 21.691406-1.550781 2.691406-4.425781 4.347656-7.53125 4.339844zm0 0"/><path d="m312.40625 252.035156c-23.949219-.027344-43.359375-19.4375-43.390625-43.386718v-86.78125c0-23.964844 19.425781-43.390626 43.390625-43.390626s43.390625 19.425782 43.390625 43.390626v86.78125c-.027344 23.949218-19.4375 43.359374-43.390625 43.386718zm0-156.203125c-14.378906 0-26.035156 11.65625-26.035156 26.035157v86.78125c0 14.375 11.65625 26.03125 26.035156 26.03125s26.035156-11.65625 26.035156-26.03125v-86.78125c0-14.378907-11.65625-26.035157-26.035156-26.035157zm0 0"/><path d="m381.832031 252.035156c-23.953125-.027344-43.363281-19.4375-43.390625-43.386718v-86.78125c0-23.964844 19.425782-43.390626 43.390625-43.390626 23.960938 0 43.386719 19.425782 43.386719 43.390626v86.78125c-.027344 23.949218-19.4375 43.359374-43.386719 43.386718zm0-156.203125c-14.378906 0-26.035156 11.65625-26.035156 26.035157v86.78125c0 14.375 11.65625 26.03125 26.035156 26.03125 14.375 0 26.03125-11.65625 26.03125-26.03125v-86.78125c0-14.378907-11.65625-26.035157-26.03125-26.035157zm0 0"/><path d="m164.882812 425.597656h-8.679687c-3.25.003906-6.5-.191406-9.726563-.582031-39.066406-4.925781-68.367187-38.144531-68.375-77.519531v-104.136719c.027344-23.953125 19.4375-43.363281 43.390626-43.390625h121.492187c23.960937 0 43.386719 19.425781 43.386719 43.390625 0 23.960937-19.425782 43.390625-43.386719 43.390625h-78.101563c-4.792968 0-8.679687-3.886719-8.679687-8.679688 0-4.792968 3.886719-8.679687 8.679687-8.679687h78.101563c14.375 0 26.03125-11.652344 26.03125-26.03125-.046875-14.359375-11.675781-25.988281-26.03125-26.035156h-121.492187c-14.378907 0-26.035157 11.65625-26.035157 26.035156v104.136719c-.011719 30.613281 22.761719 56.457031 53.136719 60.292968 2.523438.300782 5.066406.453126 7.609375.449219h8.679687c4.792969 0 8.675782 3.886719 8.675782 8.679688s-3.882813 8.679687-8.675782 8.679687zm0 0"/><path d="m312.40625 390.882812c-4.792969 0-8.675781-3.882812-8.675781-8.675781-.039063-33.535156-27.214844-60.707031-60.746094-60.746093h-34.714844c-14.375 0-26.03125-11.65625-26.03125-26.035157v-17.355469c0-4.792968 3.882813-8.679687 8.675781-8.679687 4.792969 0 8.679688 3.886719 8.679688 8.679687v17.355469c0 4.792969 3.882812 8.679688 8.675781 8.679688h34.714844c43.113281.046875 78.050781 34.984375 78.101563 78.101562 0 4.792969-3.886719 8.675781-8.679688 8.675781zm0 0"/><path d="m277.695312 252.035156h-52.066406c-9.585937 0-17.359375-7.769531-17.359375-17.355468v-26.03125c0-4.792969 3.886719-8.679688 8.679688-8.679688s8.679687 3.886719 8.679687 8.679688v26.03125h52.066406c4.792969 0 8.675782 3.886718 8.675782 8.679687s-3.882813 8.675781-8.675782 8.675781zm0 0"/><path d="m321.085938 208.648438h-17.355469c-4.792969 0-8.679688-3.886719-8.679688-8.679688s3.886719-8.679688 8.679688-8.679688h17.355469c4.792968 0 8.675781 3.886719 8.675781 8.679688s-3.882813 8.679688-8.675781 8.679688zm0 0"/><path d="m390.507812 208.648438h-17.355468c-4.792969 0-8.679688-3.886719-8.679688-8.679688s3.886719-8.679688 8.679688-8.679688h17.355468c4.792969 0 8.679688 3.886719 8.679688 8.679688s-3.886719 8.679688-8.679688 8.679688zm0 0"/><path d="m321.085938 139.222656h-17.355469c-4.792969 0-8.679688-3.886718-8.679688-8.675781 0-4.792969 3.886719-8.679687 8.679688-8.679687h17.355469c4.792968 0 8.675781 3.886718 8.675781 8.679687 0 4.789063-3.882813 8.675781-8.675781 8.675781zm0 0"/><path d="m390.507812 139.222656h-17.355468c-4.792969 0-8.679688-3.886718-8.679688-8.675781 0-4.792969 3.886719-8.679687 8.679688-8.679687h17.355468c4.792969 0 8.679688 3.886718 8.679688 8.679687 0 4.789063-3.886719 8.675781-8.679688 8.675781zm0 0"/><path d="m251.660156 139.222656h-17.355468c-4.792969 0-8.675782-3.886718-8.675782-8.675781 0-4.792969 3.882813-8.679687 8.675782-8.679687h17.355468c4.792969 0 8.679688 3.886718 8.679688 8.679687 0 4.789063-3.886719 8.675781-8.679688 8.675781zm0 0"/><path d="m182.238281 139.222656h-17.355469c-4.792968 0-8.679687-3.886718-8.679687-8.675781 0-4.792969 3.886719-8.679687 8.679687-8.679687h17.355469c4.792969 0 8.675781 3.886718 8.675781 8.679687 0 4.789063-3.882812 8.675781-8.675781 8.675781zm0 0"/><path d="m130.167969 243.359375c-4.792969 0-8.675781-3.886719-8.675781-8.679687v-26.03125c0-4.792969 3.882812-8.679688 8.675781-8.679688s8.679687 3.886719 8.679687 8.679688v26.03125c0 4.792968-3.886718 8.679687-8.679687 8.679687zm0 0"/><path d="m355.796875 295.425781h-52.066406c-4.792969 0-8.679688-3.882812-8.679688-8.675781s3.886719-8.679688 8.679688-8.679688h52.066406c4.792969 0 8.675781 3.886719 8.675781 8.679688s-3.882812 8.675781-8.675781 8.675781zm0 0"/><path d="m338.441406 330.136719h-17.355468c-4.792969 0-8.679688-3.882813-8.679688-8.675781 0-4.792969 3.886719-8.679688 8.679688-8.679688h17.355468c4.792969 0 8.675782 3.886719 8.675782 8.679688 0 4.792968-3.882813 8.675781-8.675782 8.675781zm0 0"/><path d="m338.441406 477.664062c-4.792968 0-8.679687-3.886718-8.679687-8.679687v-52.066406c0-4.792969 3.886719-8.679688 8.679687-8.679688 4.792969 0 8.675782 3.886719 8.675782 8.679688v52.066406c0 4.792969-3.882813 8.679687-8.675782 8.679687zm0 0"/><path d="m251.660156 468.984375c-4.792968 0-8.675781-3.882813-8.675781-8.675781v-34.710938c0-4.792968 3.882813-8.679687 8.675781-8.679687 4.792969 0 8.679688 3.886719 8.679688 8.679687v34.710938c0 4.792968-3.886719 8.675781-8.679688 8.675781zm0 0"/><path d="m216.949219 460.308594c-4.792969 0-8.679688-3.886719-8.679688-8.679688v-26.03125c0-4.792968 3.886719-8.679687 8.679688-8.679687s8.679687 3.886719 8.679687 8.679687v26.03125c0 4.792969-3.886718 8.679688-8.679687 8.679688zm0 0"/></g></svg>