<svg height="512pt" viewBox="0 -9 512 512" width="512pt" xmlns="http://www.w3.org/2000/svg"><path d="m406.1875 494.933594h-286.722656l-74.800782-302.933594 111.410157-172.457031c18.945312 7.679687 49.835937 14.589843 99.925781 14.589843s80.980469-6.910156 99.925781-14.589843h.085938l94.546875 168.191406zm0 0" fill="#285680"/><path d="m124.332031 121.003906 10.578125-12.714844c7.71875-9.207031 19.136719-14.492187 31.148438-14.421874h179.882812c12.011719-.070313 23.429688 5.214843 31.148438 14.421874l10.664062 12.882813 31.234375 45.101563-46.421875 191.015624-100.523437 129.964844c-3.910157 4.855469-9.808594 7.675782-16.042969 7.675782s-12.132812-2.820313-16.042969-7.675782l-100.523437-129.964844-54.867188-190.835937zm0 0" fill="#e64c3c"/><path d="m141.398438 303.273438 33.707031 43.519531 80.894531 104.621093 80.894531-104.621093 33.707031-43.519531 24.320313-119.464844-44.800781-54.015625c-1.074219-1.164063-2.59375-1.816407-4.179688-1.792969h-179.882812c-1.585938-.023438-3.105469.628906-4.179688 1.792969l-44.800781 54.015625zm0 0" fill="#f29c1f"/><path d="m256 128 28.203125 85.332031h91.261719l-73.828125 46.515625 28.195312 81.484375-73.832031-50.363281-73.832031 50.363281 28.195312-81.484375-73.828125-46.515625h91.261719zm0 0" fill="#f3d55b"/><path d="m10.71991 31.000213h-2.79007" fill="none" stroke="#000" stroke-linecap="round" stroke-linejoin="round" stroke-width="2" transform="matrix(8.533333 0 0 8.533333 0 .000005)"/><path d="m126.632812 417.023438 23.042969 66.5625c.910157 2.601562.503907 5.484374-1.085937 7.738281-1.59375 2.253906-4.175782 3.597656-6.9375 3.609375h-124.585938c-4.710937 0-8.53125-3.820313-8.53125-8.535156v-68.265626h110.929688c2.4375.027344 4.859375-.347656 7.167968-1.109374zm0 0" fill="#b0d3f0"/><path d="m8.535156 179.199219v-170.664063c0-4.714844 3.820313-8.535156 8.53125-8.535156h133.460938c2.71875-.00390625 5.277344 1.289062 6.886718 3.480469 1.609376 2.191406 2.078126 5.019531 1.261719 7.613281l-34.34375 109.910156-18.261719 58.539063c-1.207031-.246094-2.4375-.359375-3.671874-.34375zm0 0" fill="#b0d3f0"/><path d="m385.367188 417.023438-23.042969 66.5625c-.910157 2.601562-.503907 5.484374 1.085937 7.738281 1.59375 2.253906 4.175782 3.597656 6.9375 3.609375h124.585938c4.710937 0 8.53125-3.820313 8.53125-8.535156v-477.863282c0-4.714844-3.820313-8.535156-8.53125-8.535156h-133.460938c-2.71875 0-5.273437 1.292969-6.878906 3.484375-1.609375 2.191406-2.078125 5.015625-1.261719 7.609375l34.421875 110.078125 18.261719 58.285156v.085938zm0 0" fill="#b0d3f0"/><g fill="#285680"><path d="m102.398438 93.867188c-2.742188 0-5.320313-1.316407-6.925782-3.546876-1.605468-2.226562-2.039062-5.089843-1.171875-7.691406l8.535157-25.601562c1.492187-4.476563 6.328124-6.898438 10.808593-5.40625 4.476563 1.492187 6.894531 6.332031 5.402344 10.808594l-8.53125 25.601562c-1.164063 3.492188-4.433594 5.84375-8.117187 5.835938zm0 0"/><path d="m76.800781 162.132812c-2.746093.003907-5.324219-1.316406-6.929687-3.542968-1.605469-2.226563-2.039063-5.089844-1.167969-7.695313l8.53125-25.597656c.964844-2.898437 3.402344-5.058594 6.394531-5.671875 2.988282-.613281 6.078125.417969 8.105469 2.699219 2.027344 2.285156 2.679687 5.476562 1.714844 8.371093l-8.535157 25.601563c-1.160156 3.492187-4.433593 5.84375-8.113281 5.835937zm0 0"/><path d="m102.398438 460.800781c-3.910157-.003906-7.316407-2.667969-8.265626-6.460937l-8.535156-34.132813c-.796875-2.976562.070313-6.15625 2.277344-8.3125 2.203125-2.15625 5.398438-2.953125 8.359375-2.089843 2.957031.867187 5.222656 3.257812 5.917969 6.261718l8.535156 34.136719c.632812 2.546875.058594 5.25-1.558594 7.320313-1.617187 2.070312-4.101562 3.277343-6.730468 3.277343zm0 0"/></g><path d="m443.734375 435.199219c0 9.425781-7.640625 17.066406-17.066406 17.066406s-17.066407-7.640625-17.066407-17.066406 7.640626-17.066407 17.066407-17.066407 17.066406 7.640626 17.066406 17.066407zm0 0" fill="#4482c3"/><path d="m469.332031 136.535156c0 9.425782-7.640625 17.066406-17.066406 17.066406s-17.066406-7.640624-17.066406-17.066406c0-9.425781 7.640625-17.070312 17.066406-17.070312s17.066406 7.644531 17.066406 17.070312zm0 0" fill="#4482c3"/><path d="m443.734375 68.265625c0 9.425781-7.640625 17.066406-17.066406 17.066406s-17.066407-7.640625-17.066407-17.066406 7.640626-17.066406 17.066407-17.066406 17.066406 7.640625 17.066406 17.066406zm0 0" fill="#4482c3"/><path d="m59.734375 213.332031h59.730469c5.105468.003907 10.09375 1.519531 14.335937 4.351563 9.359375 6.289062 13.5 17.960937 10.203125 28.742187-3.300781 10.78125-13.261718 18.132813-24.539062 18.109375 9.226562-.019531 17.742187 4.933594 22.285156 12.960938 4.546875 8.027344 4.410156 17.878906-.351562 25.777344-1.058594 1.8125-2.351563 3.476562-3.839844 4.949218-4.792969 4.808594-11.304688 7.511719-18.09375 7.511719 14.140625 0 25.601562 11.460937 25.601562 25.597656 0 14.140625-11.460937 25.601563-25.601562 25.601563 10.347656.007812 19.671875 6.246094 23.632812 15.804687 3.957032 9.5625 1.773438 20.566407-5.539062 27.886719-3.015625 3.054688-6.785156 5.261719-10.925782 6.398438-2.308593.761718-4.730468 1.136718-7.167968 1.109374h-110.929688v-238.933593h93.863282c1.234374-.015625 2.464843.097656 3.671874.34375 3.953126.527343 7.726563 1.992187 11.007813 4.265625 1.214844.875 2.355469 1.84375 3.414063 2.902344 4.804687 4.789062 7.507812 11.300781 7.507812 18.089843 0 4.710938-3.820312 8.53125-8.535156 8.53125zm0 0" fill="#fdd7ad"/><path d="m119.464844 426.667969h-110.929688c-4.714844 0-8.535156-3.820313-8.535156-8.535157v-238.933593c0-4.710938 3.820312-8.53125 8.535156-8.53125h93.863282c1.839843-.019531 3.671874.160156 5.472656.535156 5.042968.738281 9.847656 2.644531 14.027344 5.566406 1.648437 1.171875 3.195312 2.480469 4.625 3.90625 6.425781 6.382813 10.027343 15.070313 10.011718 24.125 0 1.4375-.179687 2.871094-.539062 4.265625.863281.472656 1.71875.988282 2.558594 1.542969 8.464843 5.699219 13.9375 14.886719 14.914062 25.046875.976562 10.15625-2.640625 20.21875-9.859375 27.425781-.507813.511719-1.03125 1.003907-1.570313 1.476563 12.375 10.859375 15.195313 29.027344 6.6875 43.128906-1.410156 2.410156-3.132812 4.628906-5.117187 6.59375-.507813.511719-1.03125 1.003906-1.570313 1.476562 7.078126 6.222657 11.261719 15.101563 11.5625 24.523438.296876 9.421875-3.320312 18.542969-9.992187 25.203125-.507813.511719-1.03125 1.003906-1.570313 1.472656 7.078126 6.226563 11.261719 15.101563 11.5625 24.523438.296876 9.421875-3.320312 18.542969-9.992187 25.203125-4.082031 4.121094-9.175781 7.09375-14.773437 8.617187-3.027344.964844-6.191407 1.425781-9.371094 1.367188zm-102.398438-17.066407h102.398438c1.484375.023438 2.964844-.191406 4.378906-.640624 2.90625-.742188 5.558594-2.25 7.679688-4.371094 4.875-4.878906 6.328124-12.214844 3.691406-18.585938-2.636719-6.371094-8.851563-10.527344-15.75-10.539062h-59.730469c-4.714844 0-8.535156-3.820313-8.535156-8.53125 0-4.714844 3.820312-8.535156 8.535156-8.535156h59.730469c9.425781 0 17.070312-7.640626 17.070312-17.066407s-7.644531-17.066406-17.070312-17.066406h-59.730469c-4.714844 0-8.535156-3.820313-8.535156-8.53125 0-4.714844 3.820312-8.535156 8.535156-8.535156h59.730469c4.527344.007812 8.871094-1.796875 12.058594-5.007813.953124-.9375 1.777343-1.992187 2.457031-3.140625 1.648437-2.683593 2.53125-5.769531 2.554687-8.917969 0-9.425781-7.644531-17.066406-17.070312-17.066406h-59.730469c-4.714844 0-8.535156-3.820312-8.535156-8.53125 0-4.714844 3.820312-8.535156 8.535156-8.535156h59.730469c7.53125.03125 14.191406-4.871094 16.394531-12.070312 2.203125-7.199219-.570313-14.992188-6.828125-19.179688-2.832031-1.882812-6.160156-2.886719-9.566406-2.882812h-59.730469c-4.714844 0-8.535156-3.820313-8.535156-8.535157 0-4.710937 3.820312-8.53125 8.535156-8.53125h59.730469c.007812-4.527343-1.792969-8.871093-5.007813-12.058593-.726562-.726563-1.511719-1.394532-2.347656-1.996094-2.125-1.457032-4.5625-2.394532-7.117187-2.738282-.851563-.183593-1.71875-.277343-2.59375-.273437h-85.332032zm0 0" fill="#f09372"/><path d="m452.265625 213.332031h-59.730469c-5.105468.003907-10.09375 1.519531-14.335937 4.351563-9.359375 6.289062-13.5 17.960937-10.203125 28.742187 3.300781 10.78125 13.261718 18.132813 24.539062 18.109375-9.226562-.019531-17.742187 4.933594-22.285156 12.960938-4.546875 8.027344-4.410156 17.878906.351562 25.777344 1.058594 1.8125 2.351563 3.476562 3.839844 4.949218 4.792969 4.808594 11.304688 7.511719 18.09375 7.511719-9.839844-.015625-18.816406 5.617187-23.078125 14.488281-4.261719 8.867188-3.050781 19.394532 3.109375 27.066406.578125.75 1.207032 1.464844 1.875 2.136719 4.792969 4.804688 11.304688 7.507813 18.09375 7.507813-14.140625 0-25.601562 11.460937-25.601562 25.601562 0 14.136719 11.460937 25.597656 25.601562 25.597656h110.929688v-238.933593h-93.863282c-1.199218 0-2.398437.085937-3.585937.257812v.085938c-3.984375.515625-7.789063 1.976562-11.09375 4.265625-1.214844.875-2.355469 1.84375-3.414063 2.902344-4.804687 4.789062-7.507812 11.300781-7.507812 18.089843 0 4.710938 3.820312 8.53125 8.535156 8.53125zm0 0" fill="#fdd7ad"/><path d="m503.464844 426.667969h-110.929688c-14.195312-.011719-26.898437-8.800781-31.910156-22.078125-5.015625-13.277344-1.289062-28.269532 9.355469-37.65625-.535157-.472656-1.058594-.964844-1.570313-1.476563-.917968-.917969-1.773437-1.894531-2.5625-2.925781-11.335937-14.199219-9.515625-34.804688 4.132813-46.796875-.535157-.472656-1.058594-.964844-1.570313-1.476563-2.027344-2.015624-3.78125-4.285156-5.214844-6.757812-8.382812-14.097656-5.511718-32.164062 6.828126-42.964844-.535157-.472656-1.058594-.964844-1.570313-1.476562-7.21875-7.203125-10.835937-17.257813-9.867187-27.40625.96875-10.148438 6.425781-19.335938 14.875-25.042969.855468-.5625 1.707031-1.082031 2.558593-1.566406-.359375-1.386719-.546875-2.8125-.554687-4.242188-.015625-9.054687 3.585937-17.742187 10.011718-24.125 1.386719-1.386719 2.882813-2.660156 4.472657-3.804687 4.082031-2.847656 8.742187-4.761719 13.652343-5.597656.394532-.121094.800782-.210938 1.210938-.265626 1.585938-.226562 3.1875-.339843 4.789062-.339843h93.863282c4.714844 0 8.535156 3.820312 8.535156 8.53125v238.933593c0 4.714844-3.820312 8.535157-8.535156 8.535157zm-110.929688-51.203125c-9.425781 0-17.070312 7.644531-17.070312 17.070312 0 9.425782 7.644531 17.066406 17.070312 17.066406h102.398438v-221.867187h-85.332032c-.472656 0-.941406 0-1.410156.058594-.367187.097656-.738281.167969-1.117187.214843-2.640625.34375-5.15625 1.316407-7.339844 2.839844-.773437.578125-1.507813 1.210938-2.191406 1.894532-3.214844 3.1875-5.015625 7.53125-5.007813 12.058593h59.730469c4.714844 0 8.535156 3.820313 8.535156 8.53125 0 4.714844-3.820312 8.535157-8.535156 8.535157h-59.730469c-3.421875 0-6.761718 1.015624-9.601562 2.917968-6.230469 4.203125-8.976563 11.984375-6.769532 19.164063 2.210938 7.183593 8.855469 12.074219 16.371094 12.050781h59.730469c4.714844 0 8.535156 3.820312 8.535156 8.535156 0 4.710938-3.820312 8.53125-8.535156 8.53125h-59.730469c-6.152344-.019531-11.832031 3.285156-14.859375 8.636719-3.03125 5.351563-2.933593 11.921875.25 17.183594.703125 1.210937 1.5625 2.320312 2.558594 3.304687 3.1875 3.210938 7.523437 5.015625 12.050781 5.007813h59.730469c4.714844 0 8.535156 3.820312 8.535156 8.535156 0 4.710937-3.820312 8.53125-8.535156 8.53125h-59.730469c-9.425781 0-17.070312 7.640625-17.070312 17.066406-.011719 3.867188 1.3125 7.617188 3.746094 10.617188.390624.503906.808593.984375 1.257812 1.441406 3.1875 3.214844 7.535156 5.019531 12.066406 5.007813h59.730469c4.714844 0 8.535156 3.820312 8.535156 8.535156 0 4.710937-3.820312 8.53125-8.535156 8.53125zm0 0" fill="#f09372"/></svg>