<svg height="512pt" viewBox="0 0 512.06831 512" width="512pt" xmlns="http://www.w3.org/2000/svg"><path d="m144.949219 156.019531c62.015625-66.785156 159.789062-86.429687 242.785156-48.773437 82.992187 37.652344 132.605469 124.164062 123.195313 214.8125-9.414063 90.652344-75.742188 165.125-164.703126 184.921875-88.960937 19.800781-180.613281-19.511719-227.582031-97.609375zm0 0" fill="#35495e"/><path d="m140.359375 233.789062c-3.019531-.011718-5.824219-1.566406-7.433594-4.121093-1.613281-2.554688-1.804687-5.753907-.511719-8.484375 30.808594-64.753906 96.011719-106.113282 167.722657-106.390625 4.875 0 8.828125 3.953125 8.828125 8.828125s-3.953125 8.828125-8.828125 8.828125c-64.914063.230469-123.949219 37.667969-151.832031 96.289062-1.457032 3.074219-4.546876 5.039063-7.945313 5.050781zm0 0" fill="#4482c3"/><path d="m185.027344 381.914062c40.328125 56.699219 115.953125 75.558594 178.183594 44.429688 62.226562-31.125 92.492187-102.953125 71.308593-169.226562-21.1875-66.277344-87.503906-107.230469-156.25-96.492188-68.742187 10.742188-119.410156 69.96875-119.371093 139.546875-.015626 12.035156 1.527343 24.023437 4.589843 35.664063zm0 0" fill="#285680"/><path d="m300.136719 379.621094c-32.132813 0-61.101563-19.359375-73.398438-49.046875s-5.5-63.859375 17.222657-86.582031c22.71875-22.71875 56.894531-29.519532 86.582031-17.222657 29.6875 12.300781 49.042969 41.269531 49.042969 73.402344-.046876 43.859375-35.589844 79.398437-79.449219 79.449219zm0 0" fill="#35495e"/><path d="m300.136719 229.550781 19.09375 40.6875 42.699219 6.523438-30.894532 31.664062 7.289063 44.710938-38.1875-21.105469-38.1875 21.105469 7.292969-44.710938-30.898438-31.664062 42.699219-6.523438zm0 0" fill="#f0c419"/><path d="m150.070312 79.484375-17.65625 264.824219h-35.3125v-247.171875zm0 0" fill="#ecf0f1"/><path d="m97.101562 97.136719v247.171875h-35.308593l-17.65625-264.824219zm0 0" fill="#bdc3c7"/><path d="m70.621094 379.621094h52.964844v17.65625c0 9.75-7.902344 17.652344-17.65625 17.652344h-17.652344c-9.753906 0-17.65625-7.902344-17.65625-17.652344zm0 0" fill="#e4c05c"/><path d="m123.585938 453.417969v-29.660157c0-9.710937-7.945313-8.828124-17.65625-8.828124h-17.652344c-9.710938 0-17.65625-.882813-17.65625 8.828124v29.660157zm0 0" fill="#b19046"/><path d="m97.101562 220.722656c-4.875 0-8.824218-3.949218-8.824218-8.828125v-114.757812c0-4.875 3.949218-8.828125 8.824218-8.828125 4.878907 0 8.828126 3.953125 8.828126 8.828125v114.757812c0 4.878907-3.949219 8.828125-8.828126 8.828125zm0 0" fill="#7f8c8d"/><path d="m97.101562 353.136719c-4.875 0-8.824218-3.953125-8.824218-8.828125v-97.101563c0-4.875 3.949218-8.828125 8.824218-8.828125 4.878907 0 8.828126 3.953125 8.828126 8.828125v97.101563c0 4.875-3.949219 8.828125-8.828126 8.828125zm0 0" fill="#7f8c8d"/><path d="m150.070312 79.484375-52.96875 17.652344-52.964843-17.652344 52.964843-79.4492188zm0 0" fill="#95a5a5"/><path d="m105.929688 13.277344v39.722656c0 4.875-3.949219 8.828125-8.828126 8.828125-4.875 0-8.824218-3.953125-8.824218-8.828125v-39.722656l8.824218-13.2421878zm0 0" fill="#7f8c8d"/><path d="m46.167969 344.308594h101.871093v35.3125h-101.871093zm0 0" fill="#802f34"/><g fill="#cc4b4c"><path d="m52.964844 361.964844c0 14.625-11.855469 26.484375-26.480469 26.484375-14.628906 0-26.484375-11.859375-26.484375-26.484375s11.855469-26.480469 26.484375-26.480469c14.625 0 26.480469 11.855469 26.480469 26.480469zm0 0"/><path d="m194.207031 361.964844c0 14.625-11.855469 26.484375-26.484375 26.484375-14.625 0-26.480468-11.859375-26.480468-26.484375s11.855468-26.480469 26.480468-26.480469c14.628906 0 26.484375 11.855469 26.484375 26.480469zm0 0"/><path d="m132.414062 476.722656c0 19.503906-15.808593 35.3125-35.3125 35.3125-19.5 0-35.308593-15.808594-35.308593-35.3125 0-19.5 15.808593-35.308594 35.308593-35.308594 19.503907 0 35.3125 15.808594 35.3125 35.308594zm0 0"/></g><path d="m105.929688 476.722656c0 4.875-3.949219 8.828125-8.828126 8.828125-4.875 0-8.824218-3.953125-8.824218-8.828125s3.949218-8.828125 8.824218-8.828125c4.878907 0 8.828126 3.953125 8.828126 8.828125zm0 0" fill="#802f34"/></svg>