<svg height="512pt" viewBox="-53 0 512 512.00001" width="512pt" xmlns="http://www.w3.org/2000/svg"><path d="m317.792969 0h-141.242188c-48.753906 0-88.273437 39.523438-88.273437 88.277344v264.824218h-70.621094c-9.738281.03125-17.6289062 7.917969-17.65625 17.65625v97.105469c0 24.375 19.761719 44.136719 44.136719 44.136719h317.792969c24.378906 0 44.140624-19.761719 44.140624-44.136719v-379.585937c0-23.414063-9.300781-45.867188-25.855468-62.421875-16.554688-16.554688-39.007813-25.855469-62.421875-25.855469zm-70.621094 105.929688h.53125c-.140625.640624-.230469 1.289062-.265625 1.945312-.039062-.65625-.125-1.304688-.265625-1.945312zm0 0" fill="#e64c3c"/><path d="m247.171875 70.621094c-9.738281.027344-17.625 7.917968-17.65625 17.65625-14.453125-.710938-27.105469 9.617187-29.304687 23.921875-23.660157 19.863281-53.761719 65.589843-58.96875 170.285156-8.828126 176.550781-.707032 220.6875-52.964844 229.515625h-44.140625c24.378906 0 44.140625-19.761719 44.140625-44.136719v-379.585937c0-48.753906 39.519531-88.277344 88.273437-88.277344h70.621094c-48.726563 0-88.273437 15.800781-88.273437 35.308594 0 19.511718 39.546874 35.3125 88.273437 35.3125zm0 0" fill="#e64c3c"/><path d="m406.070312 88.277344v379.585937c.003907 15.035157-7.648437 29.042969-20.304687 37.164063-29.835937-18.804688-25.246094-73.445313-32.664063-222.542969-5.207031-103.8125-34.777343-149.628906-58.347656-169.757813-1.957031-14.550781-14.730468-25.179687-29.398437-24.449218l-.527344.527344v-.527344c-.03125-9.738282-7.917969-17.628906-17.65625-17.65625 48.730469 0 88.277344-15.800782 88.277344-35.3125 0-19.507813-39.546875-35.308594-88.277344-35.308594h70.621094c23.414062 0 45.867187 9.300781 62.421875 25.855469 16.554687 16.554687 25.855468 39.007812 25.855468 62.421875zm0 0" fill="#e64c3c"/><path d="m385.765625 505.027344c-7.113281 4.558594-15.386719 6.976562-23.835937 6.972656h-273.652344c52.257812-8.828125 44.136718-52.964844 52.964844-229.515625 5.207031-104.695313 35.308593-150.421875 58.96875-170.285156-1.203126 6.867187-.214844 13.9375 2.824218 20.214843 5.085938 11.183594 5.121094 24.011719.085938 35.222657 34.695312-11.566407 42.816406-34.515625 44.316406-48.90625 1.5 14.390625 9.621094 37.339843 44.3125 48.90625-5.03125-11.210938-4.996094-24.039063.089844-35.222657 2.980468-6.105468 3.996094-12.980468 2.914062-19.6875 23.570313 20.128907 53.140625 65.945313 58.347656 169.757813 7.417969 149.097656 2.828126 203.738281 32.664063 222.542969zm0 0" fill="#c03a2b"/><path d="m88.277344 353.101562v114.761719c0 24.375-19.761719 44.136719-44.140625 44.136719-24.375 0-44.136719-19.761719-44.136719-44.136719v-97.105469c.0273438-9.738281 7.917969-17.625 17.65625-17.65625zm0 0" fill="#c03a2b"/><g fill="#802f34"><path d="m194.207031 459.035156c-4.875 0-8.828125-3.953125-8.828125-8.828125v-203.035156c0-4.875 3.953125-8.828125 8.828125-8.828125s8.828125 3.953125 8.828125 8.828125v203.035156c0 4.875-3.953125 8.828125-8.828125 8.828125zm0 0"/><path d="m229.515625 423.722656c-4.875 0-8.824219-3.949218-8.824219-8.824218v-97.105469c0-4.875 3.949219-8.828125 8.824219-8.828125 4.878906 0 8.828125 3.953125 8.828125 8.828125v97.105469c0 4.875-3.949219 8.824218-8.828125 8.824218zm0 0"/><path d="m300.136719 459.035156c-4.875 0-8.828125-3.953125-8.828125-8.828125v-203.035156c0-4.875 3.953125-8.828125 8.828125-8.828125s8.828125 3.953125 8.828125 8.828125v203.035156c0 4.875-3.953125 8.828125-8.828125 8.828125zm0 0"/><path d="m264.828125 423.722656c-4.875 0-8.828125-3.949218-8.828125-8.824218v-97.105469c0-4.875 3.953125-8.828125 8.828125-8.828125s8.828125 3.953125 8.828125 8.828125v97.105469c0 4.875-3.953125 8.824218-8.828125 8.824218zm0 0"/><path d="m264.828125 88.277344v.617187c-.355469 9.292969-7.832031 16.726563-17.125 17.035157h-.53125c-9.714844 0-17.605469-7.847657-17.65625-17.566407v-.085937c0-9.753906 7.90625-17.65625 17.65625-17.65625s17.65625 7.902344 17.65625 17.65625zm0 0"/></g><path d="m247.4375 118.730469c-1.5 14.390625-9.621094 37.339843-44.316406 48.90625 5.035156-11.210938 5-24.039063-.085938-35.222657-3.039062-6.277343-4.027344-13.347656-2.824218-20.214843 2.199218-14.304688 14.851562-24.632813 29.304687-23.921875v.085937c.050781 9.71875 7.941406 17.566407 17.65625 17.566407.140625.640624.226563 1.289062.265625 1.945312-.414062 3.605469-.414062 7.25 0 10.855469zm0 0" fill="#fb7b76"/><path d="m291.839844 132.414062c-5.085938 11.183594-5.121094 24.011719-.089844 35.222657-34.691406-11.566407-42.8125-34.515625-44.3125-48.90625.410156-3.605469.410156-7.25 0-10.855469.035156-.65625.125-1.304688.265625-1.945312 9.292969-.308594 16.769531-7.742188 17.125-17.035157v-.089843l.527344-.527344c14.667969-.730469 27.441406 9.898437 29.398437 24.449218 1.082032 6.707032.066406 13.582032-2.914062 19.6875zm0 0" fill="#fb7b76"/><path d="m335.449219 35.308594c0-19.5-39.523438-35.308594-88.277344-35.308594s-88.273437 15.808594-88.273437 35.308594c0 19.503906 39.519531 35.3125 88.273437 35.3125s88.277344-15.808594 88.277344-35.3125zm0 0" fill="#c03a2b"/></svg>