<svg height="512pt" viewBox="0 -26 512 512" width="512pt" xmlns="http://www.w3.org/2000/svg"><path d="m326.355469 14.566406c-1.496094-8.429687-8.828125-14.57031225-17.390625-14.566406h-105.929688c-8.5625-.00390625-15.894531 6.136719-17.390625 14.566406-107.167969 17.917969-185.644531 75.738282-185.644531 144.332032v97.101562c.984375 29.097656 13.722656 56.554688 35.308594 76.09375v21.539062c-.007813 5.25 2.324218 10.234376 6.359375 13.59375l17.652343 14.65625c5.105469 4.285157 12.195313 5.316407 18.3125 2.660157 6.113282-2.65625 10.203126-8.539063 10.554688-15.195313 32.523438 16.039063 67.382812 26.824219 103.28125 31.953125l57.46875 54.910157c3.941406 3.796874 10.183594 3.796874 14.125 0l57.46875-54.910157c35.898438-5.128906 70.757812-15.914062 103.28125-31.953125.351562 6.65625 4.441406 12.539063 10.554688 15.195313 6.117187 2.65625 13.207031 1.625 18.3125-2.660157l17.652343-14.65625c4.035157-3.359374 6.367188-8.34375 6.359375-13.59375v-21.539062c21.585938-19.539062 34.324219-46.996094 35.308594-76.09375v-97.101562c0-68.59375-78.476562-126.414063-185.644531-144.332032zm146.539062 223.953125c-2.960937-3.726562-7.304687-6.101562-12.039062-6.585937-4.738281-.480469-9.46875.972656-13.121094 4.027344l-17.65625 14.742187c-4.027344 3.324219-6.359375 8.28125-6.355469 13.507813v7.945312c-19.042968 9.644531-39.042968 17.277344-59.671875 22.773438l-11.476562-31.867188c-1.429688-4.199219-5.363281-7.03125-9.800781-7.0625h-173.546876c-4.4375.03125-8.371093 2.863281-9.800781 7.0625l-11.476562 31.867188c-20.605469-5.523438-40.601563-13.125-59.671875-22.6875v-8.03125c.003906-5.226563-2.328125-10.183594-6.355469-13.507813l-17.65625-14.742187c-3.652344-3.054688-8.382813-4.507813-13.121094-4.027344-4.734375.484375-9.078125 2.859375-12.039062 6.585937-3.5-3.175781-6.828125-6.535156-9.972657-10.0625-5.8125-6.472656-10.957031-13.511719-15.363281-21.007812 26.925781-46.347657 91.632813-82.539063 172.582031-95.867188 2.417969 7.160157 9.125 11.984375 16.683594 12.003907h105.929688c7.558594-.019532 14.265625-4.84375 16.683594-12.003907 80.949218 13.328125 145.65625 49.519531 172.582031 95.867188-6.859375 11.554687-15.398438 22.027343-25.335938 31.070312zm0 0" fill="#285680"/><path d="m512 158.898438v97.101562c-.984375 29.097656-13.722656 56.554688-35.308594 76.09375v-82.539062c.015625-4-1.324218-7.890626-3.796875-11.035157 9.9375-9.042969 18.476563-19.515625 25.335938-31.070312 8.902343-14.636719 13.664062-31.417969 13.769531-48.550781zm0 0" fill="#4482c3"/><path d="m326.621094 17.65625v88.273438c-.007813 1.925781-.335938 3.835937-.972656 5.652343-2.417969 7.160157-9.125 11.984375-16.683594 12.003907h-105.929688c-7.558594-.019532-14.265625-4.84375-16.683594-12.003907-.636718-1.816406-.964843-3.726562-.972656-5.652343v-88.273438c-.011718-4.6875 1.84375-9.183594 5.160156-12.5 3.3125-3.3125 7.808594-5.1679688 12.496094-5.15625h105.929688c4.6875-.0117188 9.183594 1.84375 12.496094 5.15625 3.316406 3.316406 5.171874 7.8125 5.160156 12.5zm0 0" fill="#e4c05c"/><path d="m291.308594 44.121094v35.308594c0 4.875-3.949219 8.828124-8.824219 8.828124h-52.96875c-4.875 0-8.824219-3.953124-8.824219-8.828124v-35.308594c0-4.875 3.949219-8.828125 8.824219-8.828125h52.96875c4.875 0 8.824219 3.953125 8.824219 8.828125zm0 0" fill="#b19046"/><path d="m512 158.898438c-.105469 17.132812-4.867188 33.914062-13.769531 48.550781-26.925781-46.347657-91.632813-82.539063-172.582031-95.867188.636718-1.816406.964843-3.726562.972656-5.652343v-88.273438c.003906-1.035156-.085938-2.070312-.265625-3.089844 107.167969 17.917969 185.644531 75.738282 185.644531 144.332032zm0 0" fill="#285680"/><path d="m186.351562 111.582031c-80.949218 13.328125-145.65625 49.519531-172.582031 95.867188-8.902343-14.636719-13.664062-31.417969-13.769531-48.550781 0-68.59375 78.476562-126.414063 185.644531-144.332032-.179687 1.019532-.269531 2.054688-.265625 3.089844v88.273438c.007813 1.925781.335938 3.835937.972656 5.652343zm0 0" fill="#285680"/><path d="m376.230469 348.070312c3.117187-3.085937 4.152343-7.707031 2.648437-11.828124l-14.828125-41.3125c20.628907-5.496094 40.628907-13.128907 59.671875-22.773438v96.21875c-.011718.328125.015625.652344.089844.972656-32.523438 16.039063-67.382812 26.824219-103.28125 31.953125zm0 0" fill="#4482c3"/><path d="m378.878906 336.242188-14.828125-41.3125-11.476562-31.867188c-1.429688-4.199219-5.363281-7.03125-9.800781-7.0625h-173.546876c-4.4375.03125-8.371093 2.863281-9.800781 7.0625l-11.476562 31.867188-14.828125 41.3125c-1.503906 4.121093-.46875 8.742187 2.648437 11.828124l55.699219 53.230469 57.46875 54.910157c3.941406 3.796874 10.183594 3.796874 14.125 0l57.46875-54.910157 55.699219-53.230469c3.117187-3.085937 4.152343-7.707031 2.648437-11.828124zm-122.878906 77.859374-84.390625-80.683593 15.183594-42.109375h138.414062l15.183594 42.109375zm0 0" fill="#c03a2b"/><path d="m340.390625 333.417969-84.390625 80.683593-84.390625-80.683593 15.183594-42.109375h138.414062zm0 0" fill="#e57e25"/><path d="m191.46875 401.300781c-35.898438-5.128906-70.757812-15.914062-103.28125-31.953125.074219-.320312.101562-.644531.089844-.972656v-96.132812c19.070312 9.5625 39.066406 17.164062 59.671875 22.6875l-14.828125 41.3125c-1.503906 4.121093-.46875 8.742187 2.648437 11.828124zm0 0" fill="#4482c3"/><path d="m39.105469 238.519531c-2.472657 3.144531-3.8125 7.035157-3.796875 11.035157v82.539062c-21.585938-19.539062-34.324219-46.996094-35.308594-76.09375v-97.101562c.105469 17.132812 4.867188 33.914062 13.769531 48.550781 4.40625 7.496093 9.550781 14.535156 15.363281 21.007812 3.144532 3.527344 6.472657 6.886719 9.972657 10.0625zm0 0" fill="#4482c3"/><path d="m256 291.292969 13.636719 29.050781 30.5 4.660156-22.066407 22.617188 5.207032 31.949218-27.277344-15.089843-27.277344 15.089843 5.207032-31.949218-22.066407-22.617188 30.5-4.660156zm0 0" fill="#f3d55b"/><g fill="#2c3e50"><path d="m88.277344 264.210938v104.164062c.011718.328125-.015625.652344-.089844.972656-.351562 6.65625-4.441406 12.539063-10.554688 15.195313-6.117187 2.65625-13.207031 1.625-18.3125-2.660157l-17.652343-14.65625c-4.035157-3.359374-6.367188-8.34375-6.359375-13.59375v-104.078124c-.007813-6.855469 3.949218-13.09375 10.152344-16.007813 6.207031-2.914063 13.535156-1.972656 18.804687 2.414063l17.65625 14.742187c4.027344 3.324219 6.359375 8.28125 6.355469 13.507813zm0 0"/><path d="m476.691406 249.554688v104.078124c.007813 5.25-2.324218 10.234376-6.359375 13.59375l-17.652343 14.65625c-5.105469 4.285157-12.195313 5.316407-18.3125 2.660157-6.113282-2.65625-10.203126-8.539063-10.554688-15.195313-.074219-.320312-.101562-.644531-.089844-.972656v-104.164062c-.003906-5.226563 2.328125-10.183594 6.355469-13.507813l17.65625-14.742187c5.269531-4.386719 12.597656-5.328126 18.804687-2.414063 6.203126 2.914063 10.160157 9.152344 10.152344 16.007813zm0 0"/></g></svg>