<svg height="512pt" viewBox="0 -75 512.01702 512" width="512pt" xmlns="http://www.w3.org/2000/svg"><path d="m229.535156 229.527344h-83.246094c-4.875 0-8.828124-3.953125-8.828124-8.828125s3.953124-8.828125 8.828124-8.828125h83.246094c4.875 0 8.828125 3.953125 8.828125 8.828125s-3.953125 8.828125-8.828125 8.828125zm0 0" fill="#35495e"/><path d="m149.890625 176.558594s6.929687 103.285156-61.199219 182.308594c-2.027344 2.3125-5.089844 3.433593-8.132812 2.976562-30.339844-5.363281-57.9375-20.9375-78.210938-44.140625-1.800781-1.945313-2.632812-4.601563-2.2617185-7.230469.3710935-2.625 1.9062505-4.945312 4.1757815-6.320312 19.226562-11.472656 66.375-45.917969 66.375-127.59375" fill="#2c3e50"/><path d="m509.898438 187.152344-8.472657 42.195312c-4.097656 20.640625-22.214843 35.507813-43.257812 35.488282h-158.011719c-9.738281-.027344-17.628906-7.917969-17.65625-17.65625-.074219-9.71875-7.933594-17.582032-17.65625-17.652344h-35.308594v-52.96875h271.710938c2.652344 0 5.164062 1.191406 6.839844 3.246094 1.675781 2.054687 2.34375 4.75 1.8125 7.347656zm0 0" fill="#35495e"/><path d="m379.601562 26.492188v8.828124h-44.136718v-35.3124995h17.65625c14.625 0 26.480468 11.8593755 26.480468 26.4843755zm0 0" fill="#285680"/><path d="m335.464844.0078125v35.3124995h-158.894532c-4.875 0-8.828124-3.953124-8.828124-8.828124v-17.65625c0-4.875 3.953124-8.8281255 8.828124-8.8281255zm0 0" fill="#4482c3"/><path d="m185.394531 35.320312h105.933594v35.308594h-105.933594zm0 0" fill="#2c3e50"/><path d="m176.570312 203.042969c-2.34375 0-4.585937-.929688-6.242187-2.585938-6.714844-6.21875-10.796875-14.765625-11.414063-23.898437-.050781-4.875 3.859376-8.867188 8.734376-8.917969s8.867187 3.859375 8.921874 8.734375c.664063 4.472656 2.875 8.570312 6.238282 11.589844 2.53125 2.523437 3.289062 6.324218 1.921875 9.625-1.363281 3.304687-4.589844 5.457031-8.160157 5.453125zm0 0" fill="#e64c3c"/><path d="m512.015625 97.113281c0 4.875-3.949219 8.828125-8.828125 8.828125h-26.480469c-9.738281.027344-17.625 7.914063-17.65625 17.652344v35.3125c-.027343 9.738281-7.914062 17.625-17.65625 17.652344h-370.757812v-26.480469l70.09375-79.449219h344.804687c14.625 0 26.480469 11.855469 26.480469 26.484375zm0 0" fill="#547580"/><path d="m494.363281 123.59375v35.3125c-.03125 9.738281-7.917969 17.625-17.65625 17.652344h-35.3125c9.742188-.027344 17.628907-7.914063 17.65625-17.652344v-35.3125c.03125-9.738281 7.917969-17.625 17.65625-17.652344 9.71875.070313 17.582031 7.933594 17.65625 17.652344zm0 0" fill="#2c3e50"/><g fill="#35495e"><path d="m321.183594 141.25h-121.503906c-3.34375 0-6.398438-1.890625-7.890626-4.882812l-8.828124-17.652344c-1.367188-2.738282-1.222657-5.984375.386718-8.585938 1.605469-2.601562 4.445313-4.1875 7.503906-4.1875h121.503907c3.34375 0 6.398437 1.890625 7.890625 4.878906l8.828125 17.65625c1.367187 2.734376 1.21875 5.984376-.386719 8.585938-1.609375 2.601562-4.445312 4.1875-7.503906 4.1875zm0 0"/><path d="m370.777344 150.078125c-3.363282.019531-6.445313-1.875-7.945313-4.882813l-17.65625-35.308593c-1.410156-2.824219-1.210937-6.183594.527344-8.816407 1.738281-2.632812 4.746094-4.136718 7.894531-3.949218 3.148438.1875 5.960938 2.042968 7.371094 4.863281l17.65625 35.3125c1.367188 2.726563 1.226562 5.96875-.371094 8.570313-1.597656 2.601562-4.425781 4.195312-7.476562 4.210937zm0 0"/><path d="m406.085938 150.078125c-3.363282.019531-6.441407-1.875-7.945313-4.882813l-17.65625-35.308593c-1.410156-2.824219-1.207031-6.183594.527344-8.816407 1.738281-2.632812 4.75-4.136718 7.898437-3.949218 3.148438.1875 5.957032 2.042968 7.367188 4.863281l17.65625 35.3125c1.367187 2.726563 1.226562 5.96875-.367188 8.570313-1.597656 2.601562-4.425781 4.195312-7.480468 4.210937zm0 0"/></g><path d="m441.394531 194.214844c0 9.75-7.902343 17.65625-17.652343 17.65625s-17.65625-7.90625-17.65625-17.65625 7.90625-17.65625 17.65625-17.65625 17.652343 7.90625 17.652343 17.65625zm0 0" fill="#e64c3c"/><path d="m406.085938 194.214844c0 9.75-7.90625 17.65625-17.65625 17.65625s-17.652344-7.90625-17.652344-17.65625 7.902344-17.65625 17.652344-17.65625 17.65625 7.90625 17.65625 17.65625zm0 0" fill="#e64c3c"/><path d="m282.5 238.351562c-3.058594 0-5.898438-1.585937-7.503906-4.1875-1.609375-2.601562-1.753906-5.847656-.386719-8.585937l8.824219-17.652344c2.183594-4.363281 7.488281-6.128906 11.847656-3.945312 4.363281 2.179687 6.128906 7.484375 3.945312 11.84375l-8.824218 17.65625c-1.5 2.988281-4.558594 4.875-7.902344 4.871093zm0 0" fill="#2c3e50"/><path d="m317.808594 238.351562c-3.058594 0-5.894532-1.585937-7.503906-4.1875-1.605469-2.601562-1.753907-5.847656-.386719-8.585937l8.828125-17.652344c2.179687-4.363281 7.484375-6.128906 11.847656-3.945312 4.359375 2.179687 6.125 7.484375 3.945312 11.84375l-8.828124 17.65625c-1.5 2.988281-4.558594 4.875-7.902344 4.871093zm0 0" fill="#2c3e50"/><path d="m141.257812 79.457031c0 39.003907-31.617187 70.621094-70.621093 70.621094-39 0-70.621094-31.617187-70.621094-70.621094 0-39.003906 31.621094-70.621093 70.621094-70.621093 39.003906 0 70.621093 31.617187 70.621093 70.621093zm0 0" fill="#f29c1f"/><path d="m105.949219 79.457031c0 19.5-15.808594 35.308594-35.3125 35.308594-19.5 0-35.308594-15.808594-35.308594-35.308594s15.808594-35.3125 35.308594-35.3125c19.503906 0 35.3125 15.8125 35.3125 35.3125zm0 0" fill="#f0c419"/><path d="m52.984375 326.628906c-3.46875.003906-6.613281-2.023437-8.046875-5.179687s-.886719-6.859375 1.398438-9.464844c58.207031-66.523437 50.933593-133.683594 50.855468-134.355469-.453125-4.757812 2.960938-9.011718 7.703125-9.597656 4.738281-.589844 9.089844 2.703125 9.808594 7.425781.382813 3.046875 8.589844 75.386719-55.074219 148.152344-1.675781 1.917969-4.097656 3.019531-6.644531 3.019531zm0 0" fill="#547580"/></svg>