<svg height="512pt" viewBox="-71 0 512 512" width="512pt" xmlns="http://www.w3.org/2000/svg"><path d="m305.347656 79.449219h-239.933594l18.535157-61.351563c2.769531-10.398437 12.023437-17.75 22.777343-18.097656h157.304688c10.753906.347656 20.007812 7.699219 22.777344 18.097656zm0 0" fill="#b0d3f0"/><path d="m44.136719 79.449219h282.484375c24.375 0 44.136718 19.761719 44.136718 44.136719v52.964843c0 19.503907-15.808593 35.3125-35.308593 35.3125h-300.140625c-19.5 0-35.308594-15.808593-35.308594-35.3125v-52.964843c0-24.375 19.761719-44.136719 44.136719-44.136719zm0 0" fill="#e64c3c"/><path d="m264.828125 211.863281h70.621094v26.480469c0 14.628906-11.859375 26.484375-26.484375 26.484375h-17.65625c-14.625 0-26.480469-11.855469-26.480469-26.484375zm0 0" fill="#2c3e50"/><path d="m35.308594 211.863281h70.621094v26.480469c0 14.628906-11.855469 26.484375-26.480469 26.484375h-17.65625c-14.625 0-26.484375-11.855469-26.484375-26.484375zm0 0" fill="#2c3e50"/><path d="m105.929688 105.929688c0 14.628906-11.855469 26.484374-26.480469 26.484374-14.628907 0-26.484375-11.855468-26.484375-26.484374 0-14.625 11.855468-26.480469 26.484375-26.480469 14.625 0 26.480469 11.855469 26.480469 26.480469zm0 0" fill="#f0c419"/><path d="m318.304688 105.929688c0-14.625-11.972657-26.480469-26.738282-26.480469s-26.738281 11.855469-26.738281 26.480469c0 14.628906 11.972656 26.484374 26.738281 26.484374s26.738282-11.855468 26.738282-26.484374zm0 0" fill="#f0c419"/><path d="m150.589844 158.898438h70.101562c4.875 0 8.824219 3.949218 8.824219 8.824218v44.140625h-87.753906v-44.140625c0-4.875 3.953125-8.824218 8.828125-8.824218zm0 0" fill="#bdc3c7"/><path d="m326.53125 377.292969s-41.683594 23.207031-61.007812 33.164062c-5.847657 3.035157-9.523438 9.078125-9.523438 15.667969v68.21875c0 9.75-7.90625 17.65625-17.65625 17.65625h-105.929688c-9.75 0-17.65625-7.90625-17.65625-17.65625v-68.21875c-.011718-6.582031-3.679687-12.609375-9.523437-15.640625-19.324219-9.949219-61.007813-33.167969-61.007813-33.167969-6.699218-3.855468-10.128906-11.605468-8.476562-19.15625l17.453125-78.5625c1.828125-9.117187 10.203125-15.40625 19.464844-14.621094 4.964843.585938 9.449219 3.246094 12.339843 7.324219 2.890626 4.078125 3.917969 9.1875 2.828126 14.066407l-13.417969 60.390624c-.839844 3.773438.878906 7.65625 4.234375 9.578126l34.589844 19.71875c3.996093 2.300781 8.523437 3.519531 13.132812 3.53125h118.078125c4.621094-.007813 9.15625-1.226563 13.164063-3.53125l34.496093-19.753907c3.355469-1.921875 5.070313-5.804687 4.230469-9.578125l-13.171875-59.289062c-2.125-8.632813 2.179687-17.558594 10.257813-21.273438 4.816406-1.972656 10.261718-1.714844 14.875.699219 4.609374 2.417969 7.921874 6.742187 9.046874 11.828125l17.65625 79.449219c1.652344 7.546875-1.777343 15.300781-8.476562 19.15625zm0 0" fill="#285680"/><path d="m238.34375 326.621094c0 29.25-23.710938 52.964844-52.964844 52.964844-29.25 0-52.964844-23.714844-52.964844-52.964844 0-29.253906 23.714844-52.964844 52.964844-52.964844 29.253906 0 52.964844 23.710938 52.964844 52.964844zm0 0" fill="#fdd7ad"/><path d="m185.378906 414.898438 10.910156 20.335937 24.402344 3.265625-17.65625 15.828125 4.164063 22.363281-21.820313-10.558594-21.820312 10.558594 4.164062-22.363281-17.652344-15.828125 24.398438-3.265625zm0 0" fill="#f0c419"/><path d="m194.207031 0v17.65625c0 4.875-3.953125 8.828125-8.828125 8.828125s-8.828125-3.953125-8.828125-8.828125v-17.65625zm0 0" fill="#90bae1"/></svg>