<svg id="Capa_1" enable-background="new 0 0 512 512" height="512" viewBox="0 0 512 512" width="512" xmlns="http://www.w3.org/2000/svg"><g><g><path d="m316.25 181.482h-60.25c-8.284 0-15-6.716-15-15 0-41.493 33.757-75.25 75.25-75.25h60.25c8.284 0 15 6.716 15 15 0 41.493-33.757 75.25-75.25 75.25z" fill="#1ac776"/></g><g><path d="m271 256h-30v-128.073c0-20.775-16.901-37.677-37.677-37.677v-30c37.317 0 67.677 30.36 67.677 67.677z" fill="#bc6829"/></g><g><path d="m203.323 90.25h-60.25c-41.493 0-75.25-33.757-75.25-75.25 0-8.284 6.716-15 15-15h60.25c41.493 0 75.25 33.757 75.25 75.25 0 8.284-6.716 15-15 15z" fill="#63e340"/></g><g><path d="m256 512c-68.38 0-132.667-26.629-181.019-74.981s-74.981-112.639-74.981-181.019c0-8.284 6.716-15 15-15h139.705l82.457 62 67.377-62h192.461c8.284 0 15 6.716 15 15 0 68.38-26.629 132.667-74.981 181.019s-112.639 74.981-181.019 74.981z" fill="#96e8ff"/></g><path d="m497 241h-192.461l-48.462 44.594v226.405c68.351-.02 132.608-26.646 180.942-74.98 48.352-48.352 74.981-112.639 74.981-181.019 0-8.284-6.716-15-15-15z" fill="#19cffc"/><g><path d="m256.003 512.001c-4.31 0-8.511-1.86-11.418-5.27-.959-1.125-9.607-11.679-17.825-35.506-9.542-27.665-14.824-61.606-15.737-101.036-13.672-3.496-34.465-11.85-48.339-31.549-15.382-21.841-18.066-61.939-7.979-97.64h149.834c37.569 17.083 49.495 54.025 37.531 95.059-4.854 16.637-15.79 32.039-27.369 48.345-20.484 28.847-43.701 61.543-43.701 112.596 0 6.285-3.918 11.903-9.814 14.075-1.694.624-3.447.925-5.183.926z" fill="#63e340"/></g><path d="m304.539 241h-48.462v270.998c1.712-.009 3.439-.308 5.109-.923 5.896-2.172 9.814-7.79 9.814-14.075 0-51.053 23.217-83.749 43.701-112.597 11.579-16.306 22.515-31.708 27.369-48.345 11.964-41.033.038-77.975-37.531-95.058z" fill="#1ac776"/></g></svg>